#N canvas 827 239 734 565 12;
#N canvas 733 172 450 300 fig2_2 0;
#X obj 46 149 scope~ 200 100 256 3 128 -1 1 0 0 0 0 77 77 77 228 228 228 183 183 183 0 empty;
#X obj 279 149 scope~ 200 100 256 3 128 -1 1 0 0 0 0 77 77 77 228 228 228 183 183 183 0 empty;
#X obj 279 97 saw~ 5;
#X obj 46 97 osc~ 5;
#X obj 46 336 scope~ 200 100 256 3 128 -1 1 0 0 0 0 77 77 77 228 228 228 183 183 183 0 empty;
#X obj 46 283 square~ 5;
#X obj 279 336 scope~ 200 100 256 3 128 -1 1 0 0 0 0 77 77 77 228 228 228 183 183 183 0 empty;
#X obj 279 283 tri~ 5;
#X connect 2 0 1 0;
#X connect 3 0 0 0;
#X connect 5 0 4 0;
#X connect 7 0 6 0;
#X restore 124 74 pd fig2_2;
#N canvas 733 172 450 300 fig3_3_1 0;
#X obj 299 91 envgen~;
#X obj 299 140 numbox~ 4 15 100 #E4E4E4 #4D4D4D 10 0 0 0;
#X msg 299 49 100 1 100 0.6 1000 0.6 500 0 \, bang;
#X obj 406 140 scope~ 200 100 256 3 128 -1 1 0 0 0 0 77 77 77 228 228 228 183 183 183 0 empty;
#X connect 0 0 1 0;
#X connect 0 0 3 0;
#X connect 2 0 0 0;
#X restore 124 124 pd fig3_3_1;
#N canvas 733 172 450 300 fig3_3_2 0;
#X obj 149 91 envgen~;
#X obj 149 130 numbox~ 4 15 100 #E4E4E4 #4D4D4D 10 0 0 0;
#X msg 149 49 100 1 100 0.6 1000 0.6 500 0 \, bang;
#X obj 51 49 osc~ 440;
#X obj 51 130 *~;
#X obj 51 176 out~;
#X connect 0 0 1 0;
#X connect 0 0 4 1;
#X connect 2 0 0 0;
#X connect 3 0 4 0;
#X connect 4 0 5 0;
#X restore 124 174 pd fig3_3_2;
#N canvas 733 172 450 300 fig3_4 0;
#X obj 274 99 function 200 100 empty empty 0 1 228 228 228 55 55 55 0 0 0 0 0 1000 0;
#X obj 187 226 envgen~;
#X obj 187 107 bng 25 250 50 0 empty empty empty 17 7 0 10 #e4e4e4 #4d4d4d #373737;
#X obj 187 269 numbox~ 4 15 100 #E4E4E4 #4D4D4D 10 0 0 0;
#X obj 50 119 osc~ 440;
#X obj 50 200 *~;
#X obj 50 246 out~;
#X msg 274 29 duration 1000;
#X obj 274 224 prepend set;
#X msg 274 269 0 61.5385 1 79.4872 0.368421 207.692 0.315789 151.282 0;
#X obj 330 61 bng 25 250 50 0 empty empty empty 17 7 0 10 #e4e4e4 #4d4d4d #373737;
#X connect 0 0 1 0 32.................I....n5+++eB....p9+++uA....;
#X connect 0 0 8 0;
#X connect 1 0 3 0;
#X connect 1 0 5 1 48.................H....b8+++OB....W++++y7++++f++++L++++O3+++O0++++;
#X connect 2 0 1 0 32.................u.........vK.........3E....;
#X connect 4 0 5 0;
#X connect 5 0 6 0;
#X connect 7 0 10 0;
#X connect 7 0 0 0;
#X connect 8 0 9 0;
#X connect 10 0 0 0;
#X restore 124 224 pd fig3_4;
#N canvas 733 172 450 300 fig3_5 0;
#X obj 114 225 lag~ 10;
#X obj 274 124 function 200 100 empty empty 0 1 228 228 228 55 55 55 0 0 0 0 0 1000 0;
#X obj 187 251 envgen~;
#X obj 187 132 bng 25 250 50 0 empty empty empty 17 7 0 10 #e4e4e4 #4d4d4d #373737;
#X obj 187 294 numbox~ 4 15 100 #E4E4E4 #4D4D4D 10 0 0 0;
#X obj 50 144 osc~ 440;
#X obj 50 225 *~;
#X obj 50 271 out~;
#X msg 274 48 duration 1000;
#X obj 274 251 prepend set;
#X msg 274 294 0 97.4359 1 174.359 0.336842 400 0.336842 328.205 0;
#X obj 317 86 bng 25 250 50 0 empty empty empty 17 7 0 10 #e4e4e4 #4d4d4d #373737;
#X connect 0 0 6 1 48.................I....X9+++eB....l++++C9+++Oy++++f++++y7+++u6++++;
#X connect 1 0 2 0 32.................I....n5+++eB....p9+++uA....;
#X connect 1 0 9 0;
#X connect 2 0 4 0;
#X connect 2 0 0 0 48......................j9+++O.....o++++S7+++Ot++++D++++i6+++O0++++;
#X connect 3 0 2 0 32.................u.........vK.........3E....;
#X connect 5 0 6 0;
#X connect 6 0 7 0;
#X connect 8 0 1 0;
#X connect 8 0 11 0;
#X connect 9 0 10 0;
#X connect 11 0 1 0;
#X restore 124 274 pd fig3_5;
#N canvas 733 172 450 300 fig4_3 1;
#X obj 74 49 keyboard 16 80 4 2 0 0 empty empty;
#X obj 74 175 mtof;
#X floatatom 74 208 5 0 0 0 - - - 12;
#X obj 138 415 lag~ 10;
#X obj 298 314 function 200 100 empty empty 0 1 228 228 228 55 55 55 0 0 0 0 0 1000 0;
#X obj 211 441 envgen~;
#X obj 211 322 bng 25 250 50 0 empty empty empty 17 7 0 10 #e4e4e4 #4d4d4d #373737;
#X obj 211 484 numbox~ 4 15 100 #E4E4E4 #4D4D4D 10 0 0 0;
#X obj 74 415 *~;
#X obj 74 461 out~;
#X obj 298 441 prepend set;
#X msg 298 484 0 8.71795 1 14.8718 0.273684 40 0.178947 36.4103 0;
#X obj 183 208 sel 0;
#X obj 74 142 unpack f f, f 18;
#X floatatom 183 175 5 0 0 0 - - - 12;
#X obj 347 274 bng 25 250 50 0 empty empty empty 17 7 0 10 #e4e4e4 #4d4d4d #373737;
#X obj 74 274 pulse~;
#X msg 298 240 duration 100;
#X obj 74 240 f2s~ 20;
#X connect 0 0 13 0;
#X connect 1 0 2 0;
#X connect 2 0 18 0;
#X connect 3 0 8 1 48.................I....X9+++eB....l++++C9+++Oy++++f++++y7+++u6++++;
#X connect 4 0 5 0 32.................I....n5+++eB....p9+++uA....;
#X connect 4 0 10 0;
#X connect 5 0 7 0;
#X connect 5 0 3 0 48......................j9+++O.....o++++S7+++Ot++++D++++i6+++O0++++;
#X connect 6 0 5 0 32.................u.........vK.........3E....;
#X connect 8 0 9 0;
#X connect 10 0 11 0;
#X connect 12 1 6 0 32.................v....z.....L....M....7E....;
#X connect 13 0 1 0;
#X connect 13 1 14 0;
#X connect 14 0 12 0;
#X connect 15 0 4 0;
#X connect 16 0 8 0;
#X connect 17 0 4 0;
#X connect 17 0 15 0;
#X connect 18 0 16 0;
#X restore 124 324 pd fig4_3;
