#N canvas 827 239 734 565 12;
#X obj 46 149 scope~ 200 100 256 3 128 -1 1 0 0 0 0 77 77 77 228 228 228 183 183 183 0 empty;
#X obj 279 149 scope~ 200 100 256 3 128 -1 1 0 0 0 0 77 77 77 228 228 228 183 183 183 0 empty;
#X obj 279 97 saw~ 5;
#X obj 46 97 osc~ 5;
#X obj 46 336 scope~ 200 100 256 3 128 -1 1 0 0 0 0 77 77 77 228 228 228 183 183 183 0 empty;
#X obj 46 283 square~ 5;
#X obj 279 336 scope~ 200 100 256 3 128 -1 1 0 0 0 0 77 77 77 228 228 228 183 183 183 0 empty;
#X obj 279 283 tri~ 5;
#X obj 255 1241 else/function 200 100 empty empty 0 1 220 220 220 50 50 50 0 0 0 0 0 100 1 100 0.6 350 0.6 250 0;
#X obj 255 1361 else/display;
#X obj 255 1202 line;
#X obj 255 1397 else/f2s~ 10;
#X obj 146 1382 *~;
#X obj 146 1349 osc~ 440;
#X obj 147 1425 else/out~;
#X msg 255 1176 0 \, 1 500;
#X obj 633 1330 bng 18 250 50 0 empty empty empty 17 7 0 10 #dcdcdc #000000 #000000;
#X obj 630 1380 else/envgen~;
#X obj 524 1474 *~;
#X obj 524 1522 else/out~;
#X obj 524 1305 nbx 5 14 -1e+37 1e+37 0 0 empty empty empty 0 -8 0 10 #fcfcfc #000000 #000000 0 256;
#X obj 686 1235 else/initmess 0 50 1 50 0.6 300 0.6 200 0;
#X obj 524 1338 else/bl.tri~;
#X obj 524 1276 else/initmess 200;
#X obj 686 1268 else/function 200 100 empty empty 0 1 220 220 220 50 50 50 0 0 0 0 0 55.3846 1 46.1539 0.610526 298.462 0.6 200 0;
#X text 545 1168 Here's an example on how to use [function] with [envgen~]. Check the help file of [envgen~] for more details on how it works., f 47;
#X obj 630 1406 lag~ 10;
#X obj 172 606 envgen~;
#X obj 172 655 numbox~ 4 15 100 #E4E4E4 #4D4D4D 10 0 0 0;
#X msg 172 564 100 1 100 0.6 1000 0.6 500 0 \, bang;
#X obj 279 655 scope~ 200 100 256 3 128 -1 1 0 0 0 0 77 77 77 228 228 228 183 183 183 0 empty;
#X obj 755 606 envgen~;
#X obj 755 645 numbox~ 4 15 100 #E4E4E4 #4D4D4D 10 0 0 0;
#X msg 755 564 100 1 100 0.6 1000 0.6 500 0 \, bang;
#X obj 657 564 osc~ 440;
#X obj 657 645 *~;
#X obj 657 691 out~;
#X obj 1259 564 function 200 100 empty empty 0 1 228 228 228 55 55 55 0 0 0 0 0 61.5385 1 79.4872 0.368421 207.692 0.315789 151.282 0;
#X obj 1172 691 envgen~;
#X obj 1172 572 bng 25 250 50 0 empty empty empty 17 7 0 10 #e4e4e4 #4d4d4d #373737;
#X obj 1172 734 numbox~ 4 15 100 #E4E4E4 #4D4D4D 10 0 0 0;
#X obj 1035 584 osc~ 440;
#X obj 1035 665 *~;
#X obj 1035 711 out~;
#X obj 1755 673 lag~ 10;
#X msg 1259 494 duration 1000;
#X obj 1915 572 function 200 100 empty empty 0 1 228 228 228 55 55 55 0 0 0 0 0 97.4359 1 174.359 0.336842 400 0.336842 328.205 0;
#X obj 1828 699 envgen~;
#X obj 1828 580 bng 25 250 50 0 empty empty empty 17 7 0 10 #e4e4e4 #4d4d4d #373737;
#X obj 1828 742 numbox~ 4 15 100 #E4E4E4 #4D4D4D 10 0 0 0;
#X obj 1691 592 osc~ 440;
#X obj 1691 673 *~;
#X obj 1691 719 out~;
#X msg 1915 496 duration 1000;
#X obj 1915 699 prepend set;
#X msg 1915 742 0 97.4359 1 174.359 0.336842 400 0.336842 328.205 0;
#X obj 1259 689 prepend set;
#X msg 1259 734 0 61.5385 1 79.4872 0.368421 207.692 0.315789 151.282 0;
#X obj 2257 856 keyboard 16 80 4 2 0 0 empty empty;
#X obj 2257 982 mtof;
#X floatatom 2257 1015 5 0 0 0 - - - 12;
#X obj 2257 1081 osc~;
#X obj 2321 1222 lag~ 10;
#X obj 2481 1121 function 200 100 empty empty 0 1 228 228 228 55 55 55 0 0 0 0 0 87.1795 0.957895 0 1 282.051 0.410526 374.359 0.410526 256.41 0;
#X obj 2394 1248 envgen~;
#X obj 2394 1129 bng 25 250 50 0 empty empty empty 17 7 0 10 #e4e4e4 #4d4d4d #373737;
#X obj 2394 1291 numbox~ 4 15 100 #E4E4E4 #4D4D4D 10 0 0 0;
#X obj 2257 1222 *~;
#X obj 2257 1268 out~;
#X obj 2481 1248 prepend set;
#X msg 2481 1291 0 87.1795 0.957895 0 1 282.051 0.410526 374.359 0.410526 256.41 0;
#X obj 2366 1015 sel 0;
#X obj 2257 949 unpack f f, f 18;
#X floatatom 2366 982 5 0 0 0 - - - 12;
#X obj 2257 1047 f2s~ 10;
#X obj 2530 1081 bng 25 250 50 0 empty empty empty 17 7 0 10 #e4e4e4 #4d4d4d #373737;
#X obj 1315 526 bng 25 250 50 0 empty empty empty 17 7 0 10 #e4e4e4 #4d4d4d #373737;
#X obj 1958 534 bng 25 250 50 0 empty empty empty 17 7 0 10 #e4e4e4 #4d4d4d #373737;
#X msg 2481 1047 duration 1000;
#X connect 2 0 1 0;
#X connect 3 0 0 0;
#X connect 5 0 4 0;
#X connect 7 0 6 0;
#X connect 8 0 9 0;
#X connect 9 0 11 0;
#X connect 10 0 8 0;
#X connect 11 0 12 1;
#X connect 12 0 14 0;
#X connect 13 0 12 0;
#X connect 15 0 10 0;
#X connect 16 0 17 0;
#X connect 17 0 26 0;
#X connect 18 0 19 0;
#X connect 20 0 22 0;
#X connect 21 0 24 0;
#X connect 22 0 18 0;
#X connect 23 0 20 0;
#X connect 24 0 17 0;
#X connect 26 0 18 1;
#X connect 27 0 28 0;
#X connect 27 0 30 0;
#X connect 29 0 27 0;
#X connect 31 0 32 0;
#X connect 31 0 35 1;
#X connect 33 0 31 0;
#X connect 34 0 35 0;
#X connect 35 0 36 0;
#X connect 37 0 38 0 32.................I....n5+++eB....p9+++uA....;
#X connect 37 0 56 0;
#X connect 38 0 40 0;
#X connect 38 0 42 1 48.................H....b8+++OB....W++++y7++++f++++L++++O3+++O0++++;
#X connect 39 0 38 0 32.................u.........vK.........3E....;
#X connect 41 0 42 0;
#X connect 42 0 43 0;
#X connect 44 0 51 1 48.................I....X9+++eB....l++++C9+++Oy++++f++++y7+++u6++++;
#X connect 45 0 37 0;
#X connect 45 0 76 0;
#X connect 46 0 47 0 32.................I....n5+++eB....p9+++uA....;
#X connect 46 0 54 0;
#X connect 47 0 49 0;
#X connect 47 0 44 0 48......................j9+++O.....o++++S7+++Ot++++D++++i6+++O0++++;
#X connect 48 0 47 0 32.................u.........vK.........3E....;
#X connect 50 0 51 0;
#X connect 51 0 52 0;
#X connect 53 0 46 0;
#X connect 53 0 77 0;
#X connect 54 0 55 0;
#X connect 56 0 57 0;
#X connect 58 0 72 0;
#X connect 59 0 60 0;
#X connect 60 0 74 0;
#X connect 61 0 67 0;
#X connect 62 0 67 1 48.................I....X9+++eB....l++++C9+++Oy++++f++++y7+++u6++++;
#X connect 63 0 64 0 32.................I....n5+++eB....p9+++uA....;
#X connect 63 0 69 0;
#X connect 64 0 66 0;
#X connect 64 0 62 0 48......................j9+++O.....o++++S7+++Ot++++D++++i6+++O0++++;
#X connect 65 0 64 0 32.................u.........vK.........3E....;
#X connect 67 0 68 0;
#X connect 69 0 70 0;
#X connect 71 1 65 0 32.................v....z.....L....M....7E....;
#X connect 72 0 59 0;
#X connect 72 1 73 0;
#X connect 73 0 71 0;
#X connect 74 0 61 0;
#X connect 75 0 63 0;
#X connect 76 0 37 0;
#X connect 77 0 46 0;
#X connect 78 0 63 0;
#X connect 78 0 75 0;
