#N canvas 827 239 734 565 12;
#N canvas 733 172 450 300 fig2_4 0;
#X obj 77 180 mtof;
#X floatatom 77 213 5 0 0 0 - - - 12;
#X obj 301 315 function 200 100 empty empty 0 1 228 228 228 55 55 55 0 0 0 0 0 1000 0;
#X obj 214 446 envgen~;
#X obj 214 180 bng 25 250 50 0 empty empty empty 17 7 0 10 #e4e4e4 #4d4d4d #373737;
#X obj 214 489 numbox~ 4 15 100 #E4E4E4 #4D4D4D 10 0 0 0;
#X obj 77 420 *~;
#X obj 77 466 out~;
#X obj 301 446 prepend set;
#X msg 301 489 0 56.4103 0.873684 71.7949 0.031579 871.795 0;
#X obj 77 279 pulse~;
#X obj 77 42 tgl 25 0 empty empty empty 17 7 0 10 #e4e4e4 #4d4d4d #373737 0 1;
#X obj 77 127 rand.i 60 72;
#X msg 301 267 duration 100 \, bang;
#X obj 77 245 f2s~ 10;
#X obj 77 92 metro 250;
#X obj 159 315 tgl 25 0 empty empty empty 17 7 0 10 #e4e4e4 #4d4d4d #373737 0 1;
#X msg 159 347 legato \$1;
#X connect 0 0 1 0;
#X connect 1 0 14 0;
#X connect 2 0 8 0;
#X connect 2 0 3 0;
#X connect 3 0 5 0;
#X connect 3 0 6 1 48......................b8+++O.....W++++S8++++f++++T++++O3+++O0++++;
#X connect 4 0 3 0 32.................BC........fv.........DO....;
#X connect 6 0 7 0;
#X connect 8 0 9 0;
#X connect 10 0 6 0;
#X connect 11 0 15 0;
#X connect 12 0 0 0;
#X connect 12 0 4 0 32.................H....jH....B....IB...jA....;
#X connect 13 0 2 0;
#X connect 14 0 10 0;
#X connect 15 0 12 0;
#X connect 16 0 17 0;
#X connect 17 0 3 0 32.................n....bC....J....2.....E....;
#X restore 127 104 pd fig2_4;
#N canvas 0 22 450 300 fig3_2 0;
#X obj 118 206 rand.i 30 80;
#X obj 118 161 bng 25 250 50 0 empty empty empty 17 7 0 10 #e4e4e4 #4d4d4d #373737;
#X obj 250 272 / 12;
#X obj 118 272 % 12;
#X floatatom 118 330 5 0 0 0 - - - 12;
#X floatatom 250 330 5 0 0 0 - - - 12;
#X obj 250 301 int;
#X floatatom 118 236 5 0 0 0 - - - 12;
#X connect 0 0 7 0;
#X connect 1 0 0 0;
#X connect 2 0 6 0;
#X connect 3 0 4 0;
#X connect 6 0 5 0;
#X connect 7 0 3 0;
#X connect 7 0 2 0;
#X restore 127 161 pd fig3_2;
#N canvas 0 22 450 300 fig4_2 0;
#N canvas 0 22 450 300 scale 0;
#X obj 230 143 inlet;
#X obj 230 218 outlet;
#X restore 173 170 pd scale;
#X restore 127 218 pd fig4_2;
#N canvas 0 22 450 300 fig4_3 0;
#N canvas 0 22 450 300 scale 0;
#X obj 230 143 inlet;
#X obj 230 467 outlet;
#X obj 230 259 / 12;
#X obj 305 259 % 12;
#X floatatom 305 343 5 0 0 0 - - - 12;
#X floatatom 230 343 5 0 0 0 - - - 12;
#X obj 230 301 int;
#X obj 230 425 +;
#X obj 230 383 * 12;
#N canvas 0 22 450 300 scale_major 0;
#X obj 223 108 inlet;
#X obj 223 174 outlet;
#X restore 305 301 pd scale_major;
#X obj 230 193 t f f;
#X connect 0 0 10 0;
#X connect 2 0 6 0;
#X connect 3 0 9 0;
#X connect 4 0 7 1;
#X connect 5 0 8 0;
#X connect 6 0 5 0;
#X connect 7 0 1 0;
#X connect 8 0 7 0;
#X connect 9 0 4 0;
#X connect 10 0 2 0;
#X connect 10 1 3 0;
#X restore 173 170 pd scale;
#X restore 127 275 pd fig4_3;
#N canvas 0 22 450 300 fig4_4 0;
#N canvas 0 22 450 300 scale 0;
#X obj 230 143 inlet;
#X obj 230 392 outlet;
#X obj 230 184 / 12;
#X obj 305 184 % 12;
#X floatatom 305 268 5 0 0 0 - - - 12;
#X floatatom 230 268 5 0 0 0 - - - 12;
#X obj 230 226 int;
#X obj 230 350 +;
#X obj 230 308 * 12;
#N canvas 0 22 450 300 scale_major 0;
#X obj 223 108 inlet;
#X obj 223 234 outlet;
#X obj 223 142 select 0 1 2 3 4 5 6 7 8 9 10 11, f 54;
#X msg 224 184 0;
#X msg 279 184 2;
#X msg 334 184 4;
#X msg 390 184 5;
#X msg 445 184 7;
#X msg 500 184 9;
#X msg 555 184 11;
#X connect 0 0 2 0;
#X connect 2 0 3 0;
#X connect 2 1 3 0;
#X connect 2 2 4 0;
#X connect 2 3 4 0;
#X connect 2 4 5 0;
#X connect 2 5 6 0;
#X connect 2 6 6 0;
#X connect 2 7 7 0;
#X connect 2 8 7 0;
#X connect 2 9 8 0;
#X connect 2 10 8 0;
#X connect 2 11 9 0;
#X connect 2 12 9 0;
#X connect 3 0 1 0 32.................P..........D.........7A....;
#X connect 4 0 1 0 32.................P....T7+++OD....E+++++A....;
#X connect 5 0 1 0 32.................P....f3+++OD....H9++++A....;
#X connect 6 0 1 0 32.................P....n1+++OD....p8++++A....;
#X connect 7 0 1 0 32.................P....3x+++OD....t7++++A....;
#X connect 8 0 1 0 32.................P....Du+++OD....w6++++A....;
#X connect 9 0 1 0 32.................P....Tq+++OD....05++++A....;
#X restore 305 226 pd scale_major;
#X connect 0 0 2 0;
#X connect 0 0 3 0;
#X connect 2 0 6 0;
#X connect 3 0 9 0;
#X connect 4 0 7 1;
#X connect 5 0 8 0;
#X connect 6 0 5 0;
#X connect 7 0 1 0;
#X connect 8 0 7 0;
#X connect 9 0 4 0;
#X restore 173 170 pd scale;
#X restore 127 332 pd fig4_4;
#N canvas 0 22 450 300 fig4_5 0;
#N canvas 0 22 450 300 scale 0;
#X obj 230 143 inlet;
#X obj 230 392 outlet;
#X obj 347 184 / 12;
#X obj 230 184 % 12;
#X floatatom 230 268 5 0 0 0 - - - 12;
#X floatatom 347 268 5 0 0 0 - - - 12;
#X obj 347 226 int;
#X obj 230 350 +;
#X obj 347 308 * 12;
#N canvas 0 22 450 300 scale_major 0;
#X obj 223 108 inlet;
#X obj 223 234 outlet;
#X obj 223 142 select 0 1 2 3 4 5 6 7 8 9 10 11, f 54;
#X msg 224 184 0;
#X msg 279 184 2;
#X msg 334 184 4;
#X msg 390 184 5;
#X msg 445 184 7;
#X msg 500 184 9;
#X msg 555 184 11;
#X connect 0 0 2 0;
#X connect 2 0 3 0;
#X connect 2 1 3 0;
#X connect 2 2 4 0;
#X connect 2 3 4 0;
#X connect 2 4 5 0;
#X connect 2 5 6 0;
#X connect 2 6 6 0;
#X connect 2 7 7 0;
#X connect 2 8 7 0;
#X connect 2 9 8 0;
#X connect 2 10 8 0;
#X connect 2 11 9 0;
#X connect 2 12 9 0;
#X connect 3 0 1 0 32.................P..........D.........7A....;
#X connect 4 0 1 0 32.................P....T7+++OD....E+++++A....;
#X connect 5 0 1 0 32.................P....f3+++OD....H9++++A....;
#X connect 6 0 1 0 32.................P....n1+++OD....p8++++A....;
#X connect 7 0 1 0 32.................P....3x+++OD....t7++++A....;
#X connect 8 0 1 0 32.................P....Du+++OD....w6++++A....;
#X connect 9 0 1 0 32.................P....Tq+++OD....05++++A....;
#X restore 230 226 pd scale_major;
#X connect 0 0 3 0;
#X connect 0 0 2 0;
#X connect 2 0 6 0;
#X connect 3 0 9 0;
#X connect 4 0 7 0;
#X connect 5 0 8 0;
#X connect 6 0 5 0;
#X connect 7 0 1 0;
#X connect 8 0 7 1;
#X connect 9 0 4 0;
#X restore 78 194 pd scale;
#X obj 78 233 mtof;
#X floatatom 78 284 5 0 0 0 - - - 12;
#X obj 302 386 function 200 100 empty empty 0 1 228 228 228 55 55 55 0 0 0 0 0 1000 0;
#X obj 215 517 envgen~;
#X obj 215 201 bng 25 250 50 0 empty empty empty 17 7 0 10 #e4e4e4 #4d4d4d #373737;
#X obj 215 560 numbox~ 4 15 100 #E4E4E4 #4D4D4D 10 0 0 0;
#X obj 78 491 *~;
#X obj 78 537 out~;
#X obj 302 517 prepend set;
#X msg 302 560 0 143.59 0.968421 215.385 0.294737 451.282 0.242105 189.744 0;
#X obj 78 63 tgl 25 0 empty empty empty 17 7 0 10 #e4e4e4 #4d4d4d #373737 0 1;
#X obj 78 157 rand.i 60 72;
#X msg 302 338 duration 100 \, bang;
#X obj 78 316 f2s~ 10;
#X obj 78 113 metro 500;
#X obj 78 350 osc~;
#X obj 143 364 tgl 25 0 empty empty empty 17 7 0 10 #e4e4e4 #4d4d4d #373737 0 1;
#X msg 143 396 legato \$1;
#X connect 0 0 1 0;
#X connect 1 0 2 0;
#X connect 2 0 14 0;
#X connect 3 0 9 0;
#X connect 3 0 4 0;
#X connect 4 0 6 0;
#X connect 4 0 7 1 48......................b8+++O.....W++++27++++f++++M++++O3+++O0++++;
#X connect 5 0 4 0 32.................BC........fv.........DO....;
#X connect 7 0 8 0;
#X connect 9 0 10 0;
#X connect 11 0 15 0;
#X connect 12 0 5 0 32.................H....jH....B....IB...jA....;
#X connect 12 0 0 0;
#X connect 13 0 3 0;
#X connect 14 0 16 0;
#X connect 15 0 12 0;
#X connect 16 0 7 0;
#X connect 17 0 18 0;
#X connect 18 0 4 0 32.................y....7B...vL....u....XF....;
#X restore 128 389 pd fig4_5;
#N canvas 0 22 450 300 fig4_7 0;
#N canvas 0 22 450 300 scale 0;
#X obj 230 143 inlet;
#X obj 230 417 outlet;
#X obj 353 198 / 12;
#X obj 230 198 % 12;
#X floatatom 230 282 5 0 0 0 - - - 12;
#X floatatom 353 282 5 0 0 0 - - - 12;
#X obj 353 240 int;
#X obj 230 350 +;
#X obj 353 316 * 12;
#N canvas 0 22 450 300 scale_major 0;
#X obj 223 108 inlet;
#X obj 223 234 outlet;
#X obj 223 142 select 0 1 2 3 4 5 6 7 8 9 10 11, f 54;
#X msg 224 184 0;
#X msg 279 184 2;
#X msg 334 184 4;
#X msg 390 184 5;
#X msg 445 184 7;
#X msg 500 184 9;
#X msg 555 184 11;
#X connect 0 0 2 0;
#X connect 2 0 3 0;
#X connect 2 1 3 0;
#X connect 2 2 4 0;
#X connect 2 3 4 0;
#X connect 2 4 5 0;
#X connect 2 5 6 0;
#X connect 2 6 6 0;
#X connect 2 7 7 0;
#X connect 2 8 7 0;
#X connect 2 9 8 0;
#X connect 2 10 8 0;
#X connect 2 11 9 0;
#X connect 2 12 9 0;
#X connect 3 0 1 0 32.................P..........D.........7A....;
#X connect 4 0 1 0 32.................P....T7+++OD....E+++++A....;
#X connect 5 0 1 0 32.................P....f3+++OD....H9++++A....;
#X connect 6 0 1 0 32.................P....n1+++OD....p8++++A....;
#X connect 7 0 1 0 32.................P....3x+++OD....t7++++A....;
#X connect 8 0 1 0 32.................P....Du+++OD....w6++++A....;
#X connect 9 0 1 0 32.................P....Tq+++OD....05++++A....;
#X restore 230 240 pd scale_major;
#X connect 0 0 3 0;
#X connect 0 0 2 0;
#X connect 2 0 6 0;
#X connect 3 0 9 0;
#X connect 4 0 7 0;
#X connect 5 0 8 0;
#X connect 6 0 5 0;
#X connect 7 0 1 0;
#X connect 8 0 7 1;
#X connect 9 0 4 0;
#X restore 78 169 pd scale;
#X obj 78 208 mtof;
#X floatatom 78 259 5 0 0 0 - - - 12;
#X obj 302 361 function 200 100 empty empty 0 1 228 228 228 55 55 55 0 0 0 0 0 1000 0;
#X obj 215 492 envgen~;
#X obj 215 176 bng 25 250 50 0 empty empty empty 17 7 0 10 #e4e4e4 #4d4d4d #373737;
#X obj 215 535 numbox~ 4 15 100 #E4E4E4 #4D4D4D 10 0 0 0;
#X obj 78 545 *~;
#X obj 78 637 out~;
#X obj 302 492 prepend set;
#X msg 302 535 0 92.3077 0.915789 148.718 0.263158 610.256 0.305263 148.718 0;
#X obj 78 38 tgl 25 0 empty empty empty 17 7 0 10 #e4e4e4 #4d4d4d #373737 0 1;
#X obj 78 291 f2s~ 10;
#X obj 78 88 metro 500;
#X obj 260 132 makenote 100 200;
#X obj 260 176 keyboard 16 80 4 2 0 0 empty empty;
#X msg 302 313 duration 1000 \, bang;
#X obj 78 132 rand.i 48 84;
#X obj 78 325 osc~;
#X obj 129 404 tgl 25 0 empty empty empty 17 7 0 10 #e4e4e4 #4d4d4d #373737 0 1;
#X msg 129 445 legato \$1;
#X connect 0 0 1 0;
#X connect 0 0 14 0 64.................L....zC....C....8....T9++++V....k++++uE...Px++++1B...j7+++us....I++++C;
#X connect 1 0 2 0;
#X connect 2 0 12 0;
#X connect 3 0 9 0;
#X connect 4 0 6 0;
#X connect 4 0 7 1 32.................Q....L3+++eD....C9+++KB....;
#X connect 5 0 4 0 32.................BC........fv.........DO....;
#X connect 7 0 8 1 32.................k....XD...PI....FA...jD....;
#X connect 7 0 8 0 32.................k.........PI.........jD....;
#X connect 9 0 10 0;
#X connect 11 0 13 0;
#X connect 12 0 18 0;
#X connect 13 0 17 0;
#X connect 14 0 15 0;
#X connect 14 1 15 1 32.................M....fT...PC....HE...jA....;
#X connect 16 0 3 0;
#X connect 17 0 0 0;
#X connect 17 0 5 0 32.................M....jH...PC....IB...jA....;
#X connect 18 0 7 0;
#X connect 19 0 20 0;
#X connect 20 0 4 0;
#X restore 128 447 pd fig4_7;
#N canvas 0 22 450 300 fig5_2 0;
#N canvas 0 22 450 300 scale 0;
#X obj 230 143 inlet;
#X obj 230 467 outlet;
#X obj 353 248 / 12;
#X obj 230 248 % 12;
#X floatatom 230 332 5 0 0 0 - - - 12;
#X floatatom 353 332 5 0 0 0 - - - 12;
#X obj 353 290 int;
#X obj 230 400 +;
#X obj 353 366 * 12;
#N canvas 0 22 450 300 scale_yonanuki 0;
#X obj 223 108 inlet;
#X obj 223 234 outlet;
#X obj 223 142 select 0 1 2 3 4 5 6 7 8 9 10 11, f 54;
#X msg 225 184 0;
#X msg 292 184 2;
#X msg 361 184 4;
#X msg 431 184 7;
#X msg 500 184 9;
#X connect 0 0 2 0;
#X connect 2 0 3 0;
#X connect 2 1 3 0;
#X connect 2 2 4 0;
#X connect 2 3 4 0;
#X connect 2 4 5 0;
#X connect 2 5 5 0;
#X connect 2 6 6 0;
#X connect 2 7 6 0;
#X connect 2 8 6 0;
#X connect 2 9 7 0;
#X connect 2 10 7 0;
#X connect 2 11 7 0;
#X connect 3 0 1 0 32.................P..........D.........7A....;
#X connect 4 0 1 0 32.................P....T7+++OD....E+++++A....;
#X connect 5 0 1 0 32.................P....f3+++OD....H9++++A....;
#X connect 6 0 1 0 32.................P....3x+++OD....t7++++A....;
#X connect 7 0 1 0 32.................P....Du+++OD....w6++++A....;
#X restore 230 290 pd scale_yonanuki;
#X obj 230 189 t f f;
#X connect 0 0 10 0;
#X connect 2 0 6 0;
#X connect 3 0 9 0;
#X connect 4 0 7 0;
#X connect 5 0 8 0;
#X connect 6 0 5 0;
#X connect 7 0 1 0;
#X connect 8 0 7 1;
#X connect 9 0 4 0;
#X connect 10 0 3 0;
#X connect 10 1 2 0;
#X restore 78 194 pd scale;
#X obj 78 233 mtof;
#X floatatom 78 284 5 0 0 0 - - - 12;
#X obj 302 386 function 200 100 empty empty 0 1 228 228 228 55 55 55 0 0 0 0 0 1000 0;
#X obj 215 517 envgen~;
#X obj 215 201 bng 25 250 50 0 empty empty empty 17 7 0 10 #e4e4e4 #4d4d4d #373737;
#X obj 215 560 numbox~ 4 15 100 #E4E4E4 #4D4D4D 10 0 0 0;
#X obj 78 491 *~;
#X obj 78 537 out~;
#X obj 302 517 prepend set;
#X msg 302 560 0 102.564 0.978947 148.718 0.305263 589.744 0.347368 158.974 0;
#X obj 78 63 tgl 25 0 empty empty empty 17 7 0 10 #e4e4e4 #4d4d4d #373737 0 1;
#X obj 78 316 f2s~ 10;
#X obj 78 113 metro 500;
#X obj 260 157 makenote 100 200;
#X obj 260 201 keyboard 16 80 4 2 0 0 empty empty;
#X msg 302 338 duration 1000 \, bang;
#X obj 78 157 rand.i 48 84;
#X obj 78 350 osc~;
#X obj 154 386 tgl 25 0 empty empty empty 17 7 0 10 #e4e4e4 #4d4d4d #373737 0 1;
#X msg 154 433 legato \$1;
#X connect 0 0 1 0;
#X connect 0 0 14 0 64.................L....zC....C....8....T9++++V....k++++uE...Px++++1B...j7+++us....I++++C;
#X connect 1 0 2 0;
#X connect 2 0 12 0;
#X connect 3 0 9 0;
#X connect 3 0 4 0;
#X connect 4 0 6 0;
#X connect 4 0 7 1 48......................b8+++O.....W++++S8++++f++++T++++O3+++O0++++;
#X connect 5 0 4 0 32.................BC........fv.........DO....;
#X connect 7 0 8 0;
#X connect 9 0 10 0;
#X connect 11 0 13 0;
#X connect 12 0 18 0;
#X connect 13 0 17 0;
#X connect 14 0 15 0;
#X connect 14 1 15 1 32.................M....fT...PC....HE...jA....;
#X connect 16 0 3 0;
#X connect 17 0 0 0;
#X connect 17 0 5 0 32.................M....jH...PC....IB...jA....;
#X connect 18 0 7 0;
#X connect 19 0 20 0;
#X connect 20 0 4 0;
#X restore 128 495 pd fig5_2;
#N canvas 0 22 450 300 fig6_6 0;
#N canvas 0 22 450 300 scale 0;
#X obj 230 143 inlet;
#X obj 230 442 outlet;
#X obj 353 223 / 12;
#X obj 230 223 % 12;
#X floatatom 230 307 5 0 0 0 - - - 12;
#X floatatom 353 307 5 0 0 0 - - - 12;
#X obj 353 265 int;
#X obj 230 375 +;
#X obj 353 341 * 12;
#N canvas 0 22 450 300 scale_major 0;
#X obj 223 108 inlet;
#X obj 223 234 outlet;
#X obj 223 142 select 0 1 2 3 4 5 6 7 8 9 10 11, f 54;
#X msg 224 184 0;
#X msg 279 184 2;
#X msg 334 184 4;
#X msg 390 184 5;
#X msg 445 184 7;
#X msg 500 184 9;
#X msg 555 184 11;
#X connect 0 0 2 0;
#X connect 2 0 3 0;
#X connect 2 1 3 0;
#X connect 2 2 4 0;
#X connect 2 3 4 0;
#X connect 2 4 5 0;
#X connect 2 5 6 0;
#X connect 2 6 6 0;
#X connect 2 7 7 0;
#X connect 2 8 7 0;
#X connect 2 9 8 0;
#X connect 2 10 8 0;
#X connect 2 11 9 0;
#X connect 2 12 9 0;
#X connect 3 0 1 0 32.................P..........D.........7A....;
#X connect 4 0 1 0 32.................P....T7+++OD....E+++++A....;
#X connect 5 0 1 0 32.................P....f3+++OD....H9++++A....;
#X connect 6 0 1 0 32.................P....n1+++OD....p8++++A....;
#X connect 7 0 1 0 32.................P....3x+++OD....t7++++A....;
#X connect 8 0 1 0 32.................P....Du+++OD....w6++++A....;
#X connect 9 0 1 0 32.................P....Tq+++OD....05++++A....;
#X restore 230 265 pd scale_major;
#X obj 230 179 t f f;
#X connect 0 0 10 0;
#X connect 2 0 6 0;
#X connect 3 0 9 0;
#X connect 4 0 7 0;
#X connect 5 0 8 0;
#X connect 6 0 5 0;
#X connect 7 0 1 0;
#X connect 8 0 7 1;
#X connect 9 0 4 0;
#X connect 10 0 3 0;
#X connect 10 1 2 0;
#X restore 78 269 pd scale;
#X obj 78 308 mtof;
#X floatatom 78 359 5 0 0 0 - - - 12;
#X obj 302 461 function 200 100 empty empty 0 1 228 228 228 55 55 55 0 0 0 0 0 143.59 0.968421 158.974 0.347368 446.154 0.347368 251.282 0;
#X obj 215 592 envgen~;
#X obj 215 276 bng 25 250 50 0 empty empty empty 17 7 0 10 #e4e4e4 #4d4d4d #373737;
#X obj 215 635 numbox~ 4 15 100 #E4E4E4 #4D4D4D 10 0 0 0;
#X obj 78 645 *~;
#X obj 78 861 out~;
#X obj 302 592 prepend set;
#X msg 302 635 0 143.59 0.968421 158.974 0.347368 446.154 0.347368 251.282 0;
#X obj 78 38 tgl 25 0 empty empty empty 17 7 0 10 #e4e4e4 #4d4d4d #373737 0 1;
#X obj 78 391 f2s~ 10;
#X obj 260 232 makenote 100 200;
#X obj 260 276 keyboard 16 80 4 2 0 0 empty empty;
#X msg 302 413 duration 1000 \, bang;
#X obj 78 425 osc~;
#X obj 78 128 send note_bang;
#X obj 78 177 receive note_bang;
#N canvas 0 22 450 300 scale 0;
#X obj 230 89 inlet;
#X obj 230 417 outlet;
#X obj 353 198 / 12;
#X obj 230 198 % 12;
#X floatatom 230 282 5 0 0 0 - - - 12;
#X floatatom 353 282 5 0 0 0 - - - 12;
#X obj 353 240 int;
#X obj 230 350 +;
#X obj 353 316 * 12;
#N canvas 0 22 450 300 scale_major 0;
#X obj 223 108 inlet;
#X obj 223 234 outlet;
#X obj 223 142 select 0 1 2 3 4 5 6 7 8 9 10 11, f 54;
#X msg 224 184 0;
#X msg 279 184 2;
#X msg 334 184 4;
#X msg 390 184 5;
#X msg 445 184 7;
#X msg 500 184 9;
#X msg 555 184 11;
#X connect 0 0 2 0;
#X connect 2 0 3 0;
#X connect 2 1 3 0;
#X connect 2 2 4 0;
#X connect 2 3 4 0;
#X connect 2 4 5 0;
#X connect 2 5 6 0;
#X connect 2 6 6 0;
#X connect 2 7 7 0;
#X connect 2 8 7 0;
#X connect 2 9 8 0;
#X connect 2 10 8 0;
#X connect 2 11 9 0;
#X connect 2 12 9 0;
#X connect 3 0 1 0 32.................P..........D.........7A....;
#X connect 4 0 1 0 32.................P....T7+++OD....E+++++A....;
#X connect 5 0 1 0 32.................P....f3+++OD....H9++++A....;
#X connect 6 0 1 0 32.................P....n1+++OD....p8++++A....;
#X connect 7 0 1 0 32.................P....3x+++OD....t7++++A....;
#X connect 8 0 1 0 32.................P....Du+++OD....w6++++A....;
#X connect 9 0 1 0 32.................P....Tq+++OD....05++++A....;
#X restore 230 240 pd scale_major;
#X obj 230 147 t f f;
#X connect 0 0 10 0;
#X connect 2 0 6 0;
#X connect 3 0 9 0;
#X connect 4 0 7 0;
#X connect 5 0 8 0;
#X connect 6 0 5 0;
#X connect 7 0 1 0;
#X connect 8 0 7 1;
#X connect 9 0 4 0;
#X connect 10 0 3 0;
#X connect 10 1 2 0;
#X restore 774 266 pd scale;
#X obj 774 305 mtof;
#X floatatom 774 356 5 0 0 0 - - - 12;
#X obj 998 458 function 200 100 empty empty 0 1 228 228 228 55 55 55 0 0 0 0 0 76.9231 0.947368 97.4359 0.452632 579.487 0.463158 246.154 0;
#X obj 911 589 envgen~;
#X obj 911 273 bng 25 250 50 0 empty empty empty 17 7 0 10 #e4e4e4 #4d4d4d #373737;
#X obj 911 632 numbox~ 4 15 100 #E4E4E4 #4D4D4D 10 0 0 0;
#X obj 774 642 *~;
#X obj 998 589 prepend set;
#X msg 998 632 0 76.9231 0.947368 97.4359 0.452632 579.487 0.463158 246.154 0;
#X obj 774 388 f2s~ 10;
#X obj 956 229 makenote 100 200;
#X obj 956 273 keyboard 16 80 4 2 0 0 empty empty;
#X msg 998 410 duration 1000 \, bang;
#X obj 774 169 receive note_bang;
#X obj 1474 300 mtof;
#X floatatom 1474 351 5 0 0 0 - - - 12;
#X obj 1698 453 function 200 100 empty empty 0 1 228 228 228 55 55 55 0 0 0 0 0 112.821 0.978947 179.487 0.305263 374.359 0.305263 333.333 0;
#X obj 1611 584 envgen~;
#X obj 1611 268 bng 25 250 50 0 empty empty empty 17 7 0 10 #e4e4e4 #4d4d4d #373737;
#X obj 1611 627 numbox~ 4 15 100 #E4E4E4 #4D4D4D 10 0 0 0;
#X obj 1474 637 *~;
#X obj 1698 584 prepend set;
#X msg 1698 627 0 112.821 0.978947 179.487 0.305263 374.359 0.305263 333.333 0;
#X obj 1474 383 f2s~ 10;
#X obj 1656 224 makenote 100 200;
#X obj 1656 268 keyboard 16 80 4 2 0 0 empty empty;
#X msg 1698 405 duration 1000 \, bang;
#X obj 1474 169 receive note_bang;
#X obj 78 232 rand.i 60 84;
#X obj 1474 224 rand.i 36 48;
#X obj 78 688 send~ synth1;
#X obj 78 749 receive~ synth1;
#X obj 209 749 receive~ synth2;
#X obj 333 749 receive~ synth3;
#X obj 774 685 send~ synth2;
#X obj 1474 680 send~ synth3;
#X obj 78 797 +~, f 14;
#X obj 774 229 rand.i 36 60;
#X obj 774 422 tri~;
#X obj 78 88 metro 1000;
#X msg 150 542 legato \$1;
#X obj 150 487 tgl 26 0 empty empty empty 17 7 0 10 #dcdcdc #000000 #000000 0 1;
#X msg 848 534 legato \$1;
#X obj 848 479 tgl 26 0 empty empty empty 17 7 0 10 #dcdcdc #000000 #000000 0 1;
#X msg 1532 534 legato \$1;
#X obj 1532 479 tgl 26 0 empty empty empty 17 7 0 10 #dcdcdc #000000 #000000 0 1;
#X obj 1474 417 osc~;
#N canvas 0 22 450 300 scale 0;
#X obj 230 89 inlet;
#X obj 230 417 outlet;
#X obj 353 198 / 12;
#X obj 230 198 % 12;
#X floatatom 230 282 5 0 0 0 - - - 12;
#X floatatom 353 282 5 0 0 0 - - - 12;
#X obj 353 240 int;
#X obj 230 350 +;
#X obj 353 316 * 12;
#N canvas 0 22 450 300 scale_major 0;
#X obj 223 108 inlet;
#X obj 223 234 outlet;
#X obj 223 142 select 0 1 2 3 4 5 6 7 8 9 10 11, f 54;
#X msg 224 184 0;
#X msg 279 184 2;
#X msg 334 184 4;
#X msg 390 184 5;
#X msg 445 184 7;
#X msg 500 184 9;
#X msg 555 184 11;
#X connect 0 0 2 0;
#X connect 2 0 3 0;
#X connect 2 1 3 0;
#X connect 2 2 4 0;
#X connect 2 3 4 0;
#X connect 2 4 5 0;
#X connect 2 5 6 0;
#X connect 2 6 6 0;
#X connect 2 7 7 0;
#X connect 2 8 7 0;
#X connect 2 9 8 0;
#X connect 2 10 8 0;
#X connect 2 11 9 0;
#X connect 2 12 9 0;
#X connect 3 0 1 0 32.................P..........D.........7A....;
#X connect 4 0 1 0 32.................P....T7+++OD....E+++++A....;
#X connect 5 0 1 0 32.................P....f3+++OD....H9++++A....;
#X connect 6 0 1 0 32.................P....n1+++OD....p8++++A....;
#X connect 7 0 1 0 32.................P....3x+++OD....t7++++A....;
#X connect 8 0 1 0 32.................P....Du+++OD....w6++++A....;
#X connect 9 0 1 0 32.................P....Tq+++OD....05++++A....;
#X restore 230 240 pd scale_major;
#X obj 230 147 t f f;
#X connect 0 0 10 0;
#X connect 2 0 6 0;
#X connect 3 0 9 0;
#X connect 4 0 7 0;
#X connect 5 0 8 0;
#X connect 6 0 5 0;
#X connect 7 0 1 0;
#X connect 8 0 7 1;
#X connect 9 0 4 0;
#X connect 10 0 3 0;
#X connect 10 1 2 0;
#X restore 1474 262 pd scale;
#X msg 130 38 500;
#X connect 0 0 1 0;
#X connect 0 0 13 0 64.................L....zC....C....8....T9++++V....k++++uE...Pt++++1B...j6+++us....I++++C;
#X connect 1 0 2 0;
#X connect 2 0 12 0;
#X connect 3 0 9 0;
#X connect 3 0 4 0;
#X connect 4 0 6 0;
#X connect 4 0 7 1;
#X connect 5 0 4 0 32.................BC........fv.........DO....;
#X connect 7 0 50 0;
#X connect 9 0 10 0;
#X connect 11 0 59 0;
#X connect 12 0 16 0;
#X connect 13 0 14 0;
#X connect 13 1 14 1 32.................M....fT...PC....HE...jA....;
#X connect 15 0 3 0;
#X connect 16 0 7 0;
#X connect 18 0 48 0;
#X connect 19 0 20 0;
#X connect 19 0 30 0 64.................L....zC....C....8....T9++++V....k++++uE...Px++++1B...j7+++us....I++++C;
#X connect 20 0 21 0;
#X connect 21 0 29 0;
#X connect 22 0 27 0;
#X connect 22 0 23 0;
#X connect 23 0 25 0;
#X connect 23 0 26 1;
#X connect 24 0 23 0 32.................BC........fv.........DO....;
#X connect 26 0 54 0;
#X connect 27 0 28 0;
#X connect 29 0 58 0;
#X connect 30 0 31 0;
#X connect 30 1 31 1 32.................M....fT...PC....HE...jA....;
#X connect 32 0 22 0;
#X connect 33 0 57 0;
#X connect 34 0 35 0;
#X connect 34 0 44 0;
#X connect 35 0 43 0;
#X connect 36 0 41 0;
#X connect 36 0 37 0;
#X connect 37 0 39 0;
#X connect 37 0 40 1;
#X connect 38 0 37 0 32.................BC........fv.........DO....;
#X connect 40 0 55 0;
#X connect 41 0 42 0;
#X connect 43 0 66 0;
#X connect 44 0 45 0;
#X connect 44 1 45 1 32.................M....fT...PC....HE...jA....;
#X connect 46 0 36 0;
#X connect 47 0 49 0;
#X connect 48 0 0 0;
#X connect 48 0 5 0 32.................M....jH...PC....IB...jA....;
#X connect 49 0 38 0 32.................M....jH...PC....IB...jA....;
#X connect 49 0 67 0;
#X connect 51 0 56 0;
#X connect 52 0 56 0;
#X connect 53 0 56 0;
#X connect 56 0 8 0;
#X connect 56 0 8 1;
#X connect 57 0 19 0;
#X connect 57 0 24 0 32.................M....jH...PC....IB...jA....;
#X connect 58 0 26 0;
#X connect 59 0 17 0;
#X connect 60 0 4 0;
#X connect 61 0 60 0;
#X connect 62 0 23 0;
#X connect 63 0 62 0;
#X connect 64 0 37 0;
#X connect 65 0 64 0;
#X connect 66 0 40 0;
#X connect 67 0 34 0;
#X connect 68 0 59 1;
#X restore 128 546 pd fig6_6;
