#N canvas 827 239 527 327 12;
#N canvas 0 22 450 300 fig2_2 0;
#X obj 302 219 metro 1 120 permin;
#X obj 302 174 tgl 25 0 empty empty empty 17 7 0 10 #e4e4e4 #4d4d4d #373737 0 1;
#X obj 302 264 bng 25 250 50 0 empty empty empty 17 7 0 10 #e4e4e4 #4d4d4d #373737;
#X obj 445 219 metro 500;
#X obj 445 264 bng 25 250 50 0 empty empty empty 17 7 0 10 #e4e4e4 #4d4d4d #373737;
#X connect 0 0 2 0;
#X connect 1 0 0 0;
#X connect 1 0 3 0;
#X connect 3 0 4 0;
#X restore 259 110 pd fig2_2;
#N canvas 0 22 450 300 fig2_4 0;
#X obj 302 219 metro 1 120 permin, f 31;
#X obj 302 121 tgl 25 0 empty empty empty 17 7 0 10 #e4e4e4 #4d4d4d #373737 0 1;
#X obj 302 264 bng 25 250 50 0 empty empty empty 17 7 0 10 #e4e4e4 #4d4d4d #373737;
#X msg 356 161 tempo \$1 permin;
#X floatatom 356 121 5 0 0 0 - - - 12;
#X msg 504 161 0.25;
#X msg 570 161 0.5;
#X msg 635 161 1;
#X text 495 120 16分音符;
#X text 560 120 8分音符;
#X text 618 120 4分音符;
#X connect 0 0 2 0;
#X connect 1 0 0 0;
#X connect 3 0 0 0;
#X connect 4 0 3 0;
#X connect 5 0 0 1 32.................T..........E.........bB....;
#X connect 6 0 0 1 32.................T....76+++OE....+9+++eB....;
#X connect 7 0 0 1 32.................M.....3+++eC.....9+++eB....;
#X restore 259 146 pd fig2_4;
#N canvas 0 22 450 300 fig3_3 0;
#N canvas 0 0 450 250 (subpatch) 0;
#X array melody_fig3_5 8 float 3;
#A 0 62.5714 74.5714 59.4286 68 58.8571 77.1429 67.1429 75.4286;
#X coords 0 90 8 50 200 140 1;
#X restore 290 165 graph;
#X floatatom 124 321 5 0 0 0 - - - 12;
#X obj 124 285 int;
#X obj 124 136 bng 25 250 50 0 empty empty empty 17 7 0 10 #e4e4e4 #4d4d4d #373737;
#X obj 124 178 counter 0 7;
#X floatatom 124 214 5 0 0 0 - - - 12;
#X obj 124 249 tabread melody_fig3_5;
#X connect 2 0 1 0;
#X connect 3 0 4 0;
#X connect 4 0 5 0;
#X connect 5 0 6 0;
#X connect 6 0 2 0;
#X restore 259 185 pd fig3_3;
#N canvas 0 22 450 300 fig3_6 0;
#N canvas 0 0 450 250 (subpatch) 0;
#X array melody_fig3_6 16 float 3;
#A 0 62.5714 83.4286 73.7143 62 80.5714 63.1429 69.1429 59.4286 73.7143 79.1429 64.2857 74.8571 69.1429 57.4286 83.1429 70;
#X coords 0 90 16 50 200 140 1;
#X restore 296 288 graph;
#X floatatom 117 431 5 0 0 0 - - - 12;
#X obj 117 395 int;
#X floatatom 117 324 5 0 0 0 - - - 12;
#X obj 117 184 metro 1 120 permin, f 31;
#X obj 117 130 tgl 25 0 empty empty empty 17 7 0 10 #e4e4e4 #4d4d4d #373737 0 1;
#X obj 117 229 bng 25 250 50 0 empty empty empty 17 7 0 10 #e4e4e4 #4d4d4d #373737;
#X msg 171 136 tempo \$1 permin;
#N canvas 0 22 450 300 scale 0;
#X obj 230 143 inlet;
#X obj 230 467 outlet;
#X obj 353 248 / 12;
#X obj 230 248 % 12;
#X floatatom 230 332 5 0 0 0 - - - 12;
#X floatatom 353 332 5 0 0 0 - - - 12;
#X obj 353 290 int;
#X obj 230 400 +;
#X obj 353 366 * 12;
#N canvas 0 22 450 300 scale_yonanuki 0;
#X obj 223 108 inlet;
#X obj 223 234 outlet;
#X obj 223 142 select 0 1 2 3 4 5 6 7 8 9 10 11, f 54;
#X msg 225 184 0;
#X msg 292 184 2;
#X msg 361 184 4;
#X msg 431 184 7;
#X msg 500 184 9;
#X connect 0 0 2 0;
#X connect 2 0 3 0;
#X connect 2 1 3 0;
#X connect 2 2 4 0;
#X connect 2 3 4 0;
#X connect 2 4 5 0;
#X connect 2 5 5 0;
#X connect 2 6 6 0;
#X connect 2 7 6 0;
#X connect 2 8 6 0;
#X connect 2 9 7 0;
#X connect 2 10 7 0;
#X connect 2 11 7 0;
#X connect 3 0 1 0 32.................P..........D.........7A....;
#X connect 4 0 1 0 32.................P....T7+++OD....E+++++A....;
#X connect 5 0 1 0 32.................P....f3+++OD....H9++++A....;
#X connect 6 0 1 0 32.................P....3x+++OD....t7++++A....;
#X connect 7 0 1 0 32.................P....Du+++OD....w6++++A....;
#X restore 230 290 pd scale_yonanuki;
#X obj 230 189 t f f;
#X connect 0 0 10 0;
#X connect 2 0 6 0;
#X connect 3 0 9 0;
#X connect 4 0 7 0;
#X connect 5 0 8 0;
#X connect 6 0 5 0;
#X connect 7 0 1 0;
#X connect 8 0 7 1;
#X connect 9 0 4 0;
#X connect 10 0 3 0;
#X connect 10 1 2 0;
#X restore 117 475 pd scale;
#X obj 117 544 mtof;
#X floatatom 117 608 5 0 0 0 - - - 12;
#X obj 366 723 function 200 100 empty empty 0 1 228 228 228 55 55 55 0 0 0 0 0 5.12821 0.778947 425.641 0.0736842 569.231 0;
#X obj 254 860 envgen~;
#X obj 254 544 bng 25 250 50 0 empty empty empty 17 7 0 10 #e4e4e4 #4d4d4d #373737;
#X obj 254 903 numbox~ 4 15 100 #E4E4E4 #4D4D4D 10 0 0 0;
#X obj 117 928 *~;
#X obj 117 1013 out~;
#X obj 366 860 prepend set;
#X msg 366 903 0 5.12821 0.778947 425.641 0.0736842 569.231 0;
#X obj 341 464 makenote 100 200;
#X obj 341 508 keyboard 16 80 2 4 0 0 empty empty;
#X msg 366 681 duration 1000 \, bang;
#X obj 274 723 tgl 25 0 empty empty empty 17 7 0 10 #e4e4e4 #4d4d4d #373737 0 1;
#X msg 274 774 legato \$1;
#X floatatom 171 96 5 0 0 0 - - - 12;
#X obj 117 288 counter 0 15;
#X obj 117 659 f2s~ 5;
#X obj 520 681 initmess 0 5.12821 0.778947 425.641 0.0736842 569.231 0;
#X obj 366 645 loadbang;
#X obj 117 693 osc~;
#X obj 274 679 loadbang;
#X obj 117 359 tabread melody_fig3_6;
#X msg 321 130 0.25;
#X msg 370 130 0.5;
#X msg 422 130 1;
#X connect 1 0 8 0;
#X connect 2 0 1 0;
#X connect 3 0 31 0;
#X connect 4 0 6 0;
#X connect 5 0 4 0;
#X connect 6 0 25 0;
#X connect 7 0 4 0;
#X connect 8 0 9 0;
#X connect 8 0 13 0 32.................Q....jH...PD....IB...HC....;
#X connect 8 0 19 0 48......................rD.........KA...b8+++O3....W++++CN...v3++++;
#X connect 9 0 10 0;
#X connect 10 0 26 0;
#X connect 11 0 17 0;
#X connect 11 0 12 0;
#X connect 12 0 14 0;
#X connect 12 0 15 1 48......................b8+++O.....W++++S8++++f++++T++++O3+++O0++++;
#X connect 13 0 12 0 32.................BC........fv.........DO....;
#X connect 15 0 16 1 32.................g....XD...PH....FA...HD....;
#X connect 15 0 16 0 32.................g.........PH.........HD....;
#X connect 17 0 18 0;
#X connect 19 0 20 0;
#X connect 19 1 20 1 32.................M....fT...PC....HE...jA....;
#X connect 21 0 11 0;
#X connect 22 0 23 0;
#X connect 23 0 12 0;
#X connect 24 0 7 0;
#X connect 25 0 3 0;
#X connect 26 0 29 0;
#X connect 27 0 11 0;
#X connect 28 0 21 0;
#X connect 29 0 15 0;
#X connect 30 0 22 0;
#X connect 31 0 2 0;
#X connect 32 0 4 1;
#X connect 33 0 4 1;
#X connect 34 0 4 1;
#X restore 259 237 pd fig3_6;
#N canvas 0 22 450 300 fig5 1;
#N canvas 0 0 450 250 (subpatch) 0;
#X array melody_fig5 16 float 3;
#A 0 62.5714 83.4286 73.7143 62 80.5714 63.1429 69.1429 59.4286 73.7143 79.1429 64.2857 74.8571 69.1429 57.4286 80.2857 70;
#X coords 0 90 16 50 200 140 1;
#X restore 296 288 graph;
#X floatatom 117 431 5 0 0 0 - - - 12;
#X obj 117 395 int;
#X floatatom 117 324 5 0 0 0 - - - 12;
#X obj 117 184 metro 1 120 permin, f 31;
#X obj 117 136 tgl 25 0 empty empty empty 17 7 0 10 #e4e4e4 #4d4d4d #373737 0 1;
#X obj 117 229 bng 25 250 50 0 empty empty empty 17 7 0 10 #e4e4e4 #4d4d4d #373737;
#X msg 171 136 tempo \$1 permin;
#N canvas 0 22 450 300 scale 0;
#X obj 230 143 inlet;
#X obj 230 467 outlet;
#X obj 353 248 / 12;
#X obj 230 248 % 12;
#X floatatom 230 332 5 0 0 0 - - - 12;
#X floatatom 353 332 5 0 0 0 - - - 12;
#X obj 353 290 int;
#X obj 230 400 +;
#X obj 353 366 * 12;
#N canvas 0 22 450 300 scale_yonanuki 0;
#X obj 223 108 inlet;
#X obj 223 234 outlet;
#X obj 223 142 select 0 1 2 3 4 5 6 7 8 9 10 11, f 54;
#X msg 225 184 0;
#X msg 292 184 2;
#X msg 361 184 4;
#X msg 431 184 7;
#X msg 500 184 9;
#X connect 0 0 2 0;
#X connect 2 0 3 0;
#X connect 2 1 3 0;
#X connect 2 2 4 0;
#X connect 2 3 4 0;
#X connect 2 4 5 0;
#X connect 2 5 5 0;
#X connect 2 6 6 0;
#X connect 2 7 6 0;
#X connect 2 8 6 0;
#X connect 2 9 7 0;
#X connect 2 10 7 0;
#X connect 2 11 7 0;
#X connect 3 0 1 0 32.................P..........D.........7A....;
#X connect 4 0 1 0 32.................P....T7+++OD....E+++++A....;
#X connect 5 0 1 0 32.................P....f3+++OD....H9++++A....;
#X connect 6 0 1 0 32.................P....3x+++OD....t7++++A....;
#X connect 7 0 1 0 32.................P....Du+++OD....w6++++A....;
#X restore 230 290 pd scale_yonanuki;
#X obj 230 189 t f f;
#X connect 0 0 10 0;
#X connect 2 0 6 0;
#X connect 3 0 9 0;
#X connect 4 0 7 0;
#X connect 5 0 8 0;
#X connect 6 0 5 0;
#X connect 7 0 1 0;
#X connect 8 0 7 1;
#X connect 9 0 4 0;
#X connect 10 0 3 0;
#X connect 10 1 2 0;
#X restore 117 475 pd scale;
#X obj 117 544 mtof;
#X floatatom 117 608 5 0 0 0 - - - 12;
#X obj 341 723 function 200 100 empty empty 0 1 228 228 228 55 55 55 0 0 0 0 0 5.12821 0.778947 425.641 0.0736842 569.231 0;
#X obj 254 860 envgen~;
#X obj 254 544 bng 25 250 50 0 empty empty empty 17 7 0 10 #e4e4e4 #4d4d4d #373737;
#X obj 254 903 numbox~ 4 15 100 #E4E4E4 #4D4D4D 10 0 0 0;
#X obj 117 949 *~;
#X obj 117 1575 out~;
#X obj 341 860 prepend set;
#X msg 341 903 0 5.12821 0.778947 425.641 0.0736842 569.231 0;
#X obj 341 464 makenote 100 200;
#X obj 341 508 keyboard 16 80 2 4 0 0 empty empty;
#X msg 341 681 duration 1000 \, bang;
#X obj 193 729 tgl 25 0 empty empty empty 17 7 0 10 #e4e4e4 #4d4d4d #373737 0 1;
#X msg 193 776 legato \$1;
#X floatatom 171 96 5 0 0 0 - - - 12;
#X obj 117 288 counter 0 15;
#X obj 117 659 f2s~ 5;
#X floatatom 351 1319 5 0 0 0 - - - 0;
#X msg 351 1338 feedback \$1;
#X floatatom 438 1319 5 0 0 1 dB - - 0;
#X msg 438 1338 dry-gain \$1;
#X floatatom 526 1319 5 0 0 1 dB - - 0;
#X msg 526 1338 wet-gain \$1;
#X floatatom 618 1319 10 0 0 1 Hz - - 0;
#X floatatom 706 1319 10 0 0 1 Hz - - 0;
#X msg 618 1338 lowcut \$1;
#X msg 706 1338 highcut \$1;
#X obj 351 1183 vsl 15 128 0 100 0 0 empty empty empty 0 -9 0 10 #fcfcfc #000000 #000000 0 1;
#X obj 438 1183 vsl 15 128 0 100 0 0 empty empty empty 0 -9 0 10 #fcfcfc #000000 #000000 0 1;
#X obj 526 1183 vsl 15 128 0 100 0 0 empty empty empty 0 -9 0 10 #fcfcfc #000000 #000000 0 1;
#X obj 618 1183 vsl 15 128 0 25000 0 0 empty empty empty 0 -9 0 10 #fcfcfc #000000 #000000 0 1;
#X obj 706 1183 vsl 15 128 0 25000 0 0 empty empty empty 0 -9 0 10 #fcfcfc #000000 #000000 0 1;
#X floatatom 791 1319 10 0 0 1 Hz - - 0;
#X obj 791 1183 vsl 15 128 0 25000 0 0 empty empty empty 0 -9 0 10 #fcfcfc #000000 #000000 0 1;
#X floatatom 886 1319 5 0 0 0 - - - 0;
#X obj 886 1183 vsl 15 128 0 100 0 0 empty empty empty 0 -9 0 10 #fcfcfc #000000 #000000 0 1;
#X msg 886 1338 damp \$1;
#X msg 791 1338 crossfreq \$1;
#X obj 850 1058 loadbang;
#X msg 791 1161 3000;
#X msg 886 1160 60;
#X msg 618 1161 5;
#X msg 706 1161 24000;
#X floatatom 956 1319 5 0 0 0 - - - 0;
#X obj 956 1183 vsl 15 128 0 2800 0 0 empty empty empty 0 -9 0 10 #fcfcfc #000000 #000000 0 1;
#X msg 956 1160 0;
#X msg 956 1338 predelay_ms \$1;
#X obj 300 1488 hv.reverb~;
#X obj 300 1101 *~ 0.5;
#X obj 495 681 initmess 0 5.12821 0.778947 425.641 0.0736842 569.231 0;
#X obj 341 645 loadbang;
#X msg 438 1161 0;
#X msg 526 1161 93;
#X msg 351 1162 95;
#X obj 326 1058 hsl 128 17 0 1 0 0 empty empty empty -2 -8 0 10 #e4e4e4 #4d4d4d #373737 0 1;
#X obj 193 681 loadbang;
#X obj 117 693 osc~;
#X obj 117 359 tabread melody_fig5;
#X msg 319 129 0.25;
#X msg 366 129 0.5;
#X msg 422 129 1;
#X connect 1 0 8 0;
#X connect 2 0 1 0;
#X connect 3 0 67 0;
#X connect 4 0 6 0;
#X connect 5 0 4 0;
#X connect 6 0 25 0;
#X connect 7 0 4 0;
#X connect 8 0 9 0;
#X connect 8 0 13 0 32.................Q....jH...PD....IB...HC....;
#X connect 8 0 19 0 48......................rD.........KA...b8+++O3....W++++CN...v3++++;
#X connect 9 0 10 0;
#X connect 10 0 26 0;
#X connect 11 0 17 0;
#X connect 11 0 12 0;
#X connect 12 0 14 0;
#X connect 12 0 15 1 48.................M....b8+++eC....W++++6....vf++++N....L3+++eL....;
#X connect 13 0 12 0 32.................BC........fv.........DO....;
#X connect 15 0 16 1 32.................5D...PC...fNA...z....Lm....;
#X connect 15 0 16 0 32.................5D...79+++uNA...u++++Om....;
#X connect 15 0 58 0 32.................5....bK...fN....2B...nI....;
#X connect 17 0 18 0;
#X connect 19 0 20 0;
#X connect 19 1 20 1 32.................M....fT...PC....HE...jA....;
#X connect 21 0 11 0;
#X connect 22 0 23 0;
#X connect 23 0 12 0;
#X connect 24 0 7 0;
#X connect 25 0 3 0;
#X connect 26 0 66 0;
#X connect 27 0 28 0;
#X connect 28 0 57 1 32.................BA...7++++uP....+++++OH....;
#X connect 29 0 30 0;
#X connect 30 0 57 1 32.................r....f5+++OK....n9+++OH....;
#X connect 31 0 32 0;
#X connect 32 0 57 1 32.................r.....0+++OK....P8+++OH....;
#X connect 33 0 35 0;
#X connect 34 0 36 0;
#X connect 35 0 57 1 32.................r....Pu+++OK....z6+++OH....;
#X connect 36 0 57 1 32.................r....vo+++OK....b5+++OH....;
#X connect 37 0 27 0;
#X connect 38 0 29 0;
#X connect 39 0 31 0;
#X connect 40 0 33 0;
#X connect 41 0 34 0;
#X connect 42 0 47 0;
#X connect 43 0 42 0;
#X connect 44 0 46 0;
#X connect 45 0 44 0;
#X connect 46 0 57 1 32.................r....fd+++OK....n2+++OH....;
#X connect 47 0 57 1 32.................w....bj+++eL....G4+++OH....;
#X connect 48 0 61 0 32.................j....Tl+++OI....k4+++SE....;
#X connect 48 0 50 0 32.................p....PB...fJ....j....LE....;
#X connect 48 0 49 0 32.................p....X7+++uJ....F++++SE....;
#X connect 48 0 52 0 32.................b....D2+++OG....w8+++SE....;
#X connect 48 0 51 0 32.................b....bw+++OG....W7+++SE....;
#X connect 48 0 62 0 32.................b....zq+++OG....85+++SE....;
#X connect 48 0 63 0 32.................f....3f+++OH....N3+++WE....;
#X connect 48 0 55 0 32.................b....fF....G....nA...LE....;
#X connect 49 0 43 0;
#X connect 50 0 45 0;
#X connect 51 0 40 0;
#X connect 52 0 41 0;
#X connect 53 0 56 0;
#X connect 54 0 53 0;
#X connect 55 0 54 0;
#X connect 56 0 57 1 32.................w....HZ+++eL....h1+++OH....;
#X connect 57 0 16 0 32.................V....fy+++uE....37+++OD....;
#X connect 57 1 16 1 32.................V....zz+++uE....M8+++OD....;
#X connect 58 0 57 0;
#X connect 59 0 11 0;
#X connect 60 0 21 0;
#X connect 61 0 38 0;
#X connect 62 0 39 0;
#X connect 63 0 37 0;
#X connect 64 0 58 1;
#X connect 65 0 22 0;
#X connect 66 0 15 0;
#X connect 67 0 2 0;
#X connect 68 0 4 1;
#X connect 69 0 4 1;
#X connect 70 0 4 1;
#X restore 259 355 pd fig5;
#N canvas 0 22 450 300 fig4 0;
#N canvas 0 0 450 250 (subpatch) 0;
#X array melody1 4 float 3;
#A 0 85.7143 76.7857 81.4286 86.0714;
#X coords 0 90 4 40 200 140 1;
#X restore 309 382 graph;
#X floatatom 99 525 5 0 0 0 - - - 12;
#X obj 99 489 int;
#X floatatom 99 418 5 0 0 0 - - - 12;
#X obj 99 278 metro 1 120 permin, f 31;
#X obj 99 34 tgl 25 0 empty empty empty 17 7 0 10 #e4e4e4 #4d4d4d #373737 0 1;
#X obj 99 323 bng 25 250 50 0 empty empty empty 17 7 0 10 #e4e4e4 #4d4d4d #373737;
#X msg 386 99 tempo \$1 permin;
#N canvas 0 22 450 300 scale 0;
#X obj 230 143 inlet;
#X obj 230 467 outlet;
#X obj 353 248 / 12;
#X obj 230 248 % 12;
#X floatatom 230 332 5 0 0 0 - - - 12;
#X floatatom 353 332 5 0 0 0 - - - 12;
#X obj 353 290 int;
#X obj 230 400 +;
#X obj 353 366 * 12;
#N canvas 0 22 450 300 scale_yonanuki 0;
#X obj 223 108 inlet;
#X obj 223 234 outlet;
#X obj 223 142 select 0 1 2 3 4 5 6 7 8 9 10 11, f 54;
#X msg 225 184 0;
#X msg 292 184 2;
#X msg 361 184 4;
#X msg 431 184 7;
#X msg 500 184 9;
#X connect 0 0 2 0;
#X connect 2 0 3 0;
#X connect 2 1 3 0;
#X connect 2 2 4 0;
#X connect 2 3 4 0;
#X connect 2 4 5 0;
#X connect 2 5 5 0;
#X connect 2 6 6 0;
#X connect 2 7 6 0;
#X connect 2 8 6 0;
#X connect 2 9 7 0;
#X connect 2 10 7 0;
#X connect 2 11 7 0;
#X connect 3 0 1 0 32.................P..........D.........7A....;
#X connect 4 0 1 0 32.................P....T7+++OD....E+++++A....;
#X connect 5 0 1 0 32.................P....f3+++OD....H9++++A....;
#X connect 6 0 1 0 32.................P....3x+++OD....t7++++A....;
#X connect 7 0 1 0 32.................P....Du+++OD....w6++++A....;
#X restore 230 290 pd scale_yonanuki;
#X obj 230 189 t f f;
#X connect 0 0 10 0;
#X connect 2 0 6 0;
#X connect 3 0 9 0;
#X connect 4 0 7 0;
#X connect 5 0 8 0;
#X connect 6 0 5 0;
#X connect 7 0 1 0;
#X connect 8 0 7 1;
#X connect 9 0 4 0;
#X connect 10 0 3 0;
#X connect 10 1 2 0;
#X restore 99 569 pd scale;
#X obj 99 638 mtof;
#X floatatom 99 702 5 0 0 0 - - - 12;
#X obj 348 817 function 200 100 empty empty 0 1 228 228 228 55 55 55 0 0 0 0 0 5.12821 0.778947 425.641 0.0736842 569.231 0;
#X obj 236 954 envgen~;
#X obj 236 638 bng 25 250 50 0 empty empty empty 17 7 0 10 #e4e4e4 #4d4d4d #373737;
#X obj 236 997 numbox~ 4 15 100 #E4E4E4 #4D4D4D 10 0 0 0;
#X obj 99 1043 *~;
#X obj 99 1265 out~;
#X obj 348 954 prepend set;
#X msg 348 997 0 5.12821 0.778947 425.641 0.0736842 569.231 0;
#X obj 323 558 makenote 100 200;
#X obj 323 602 keyboard 16 80 2 4 0 0 empty empty;
#X msg 348 775 duration 1000 \, bang;
#X obj 256 817 tgl 25 0 empty empty empty 17 7 0 10 #e4e4e4 #4d4d4d #373737 0 1;
#X msg 256 868 legato \$1;
#X floatatom 386 67 5 0 0 0 - - - 12;
#X obj 99 753 f2s~ 5;
#X obj 502 775 initmess 0 5.12821 0.778947 425.641 0.0736842 569.231 0;
#X obj 348 739 loadbang;
#X obj 99 787 osc~;
#X obj 256 773 loadbang;
#X obj 99 453 tabread melody1;
#X obj 99 132 send seq_start;
#X obj 99 230 receive seq_start;
#X obj 99 1089 send~ melody1;
#X obj 99 1137 receive~ melody1;
#X obj 99 1191 *~ 1;
#N canvas 0 0 450 250 (subpatch) 0;
#X array melody2 8 float 3;
#A 0 83.9286 76.0714 67.5 82.5 66.4286 61.7857 68.9286 61.0714;
#X coords 0 90 8 40 200 140 1;
#X restore 1116 397 graph;
#X floatatom 906 540 5 0 0 0 - - - 12;
#X obj 906 504 int;
#X floatatom 906 433 5 0 0 0 - - - 12;
#X obj 906 293 metro 1 120 permin, f 31;
#X obj 906 338 bng 25 250 50 0 empty empty empty 17 7 0 10 #e4e4e4 #4d4d4d #373737;
#N canvas 0 22 450 300 scale 0;
#X obj 230 143 inlet;
#X obj 230 467 outlet;
#X obj 353 248 / 12;
#X obj 230 248 % 12;
#X floatatom 230 332 5 0 0 0 - - - 12;
#X floatatom 353 332 5 0 0 0 - - - 12;
#X obj 353 290 int;
#X obj 230 400 +;
#X obj 353 366 * 12;
#N canvas 0 22 450 300 scale_yonanuki 0;
#X obj 223 108 inlet;
#X obj 223 234 outlet;
#X obj 223 142 select 0 1 2 3 4 5 6 7 8 9 10 11, f 54;
#X msg 225 184 0;
#X msg 292 184 2;
#X msg 361 184 4;
#X msg 431 184 7;
#X msg 500 184 9;
#X connect 0 0 2 0;
#X connect 2 0 3 0;
#X connect 2 1 3 0;
#X connect 2 2 4 0;
#X connect 2 3 4 0;
#X connect 2 4 5 0;
#X connect 2 5 5 0;
#X connect 2 6 6 0;
#X connect 2 7 6 0;
#X connect 2 8 6 0;
#X connect 2 9 7 0;
#X connect 2 10 7 0;
#X connect 2 11 7 0;
#X connect 3 0 1 0 32.................P..........D.........7A....;
#X connect 4 0 1 0 32.................P....T7+++OD....E+++++A....;
#X connect 5 0 1 0 32.................P....f3+++OD....H9++++A....;
#X connect 6 0 1 0 32.................P....3x+++OD....t7++++A....;
#X connect 7 0 1 0 32.................P....Du+++OD....w6++++A....;
#X restore 230 290 pd scale_yonanuki;
#X obj 230 189 t f f;
#X connect 0 0 10 0;
#X connect 2 0 6 0;
#X connect 3 0 9 0;
#X connect 4 0 7 0;
#X connect 5 0 8 0;
#X connect 6 0 5 0;
#X connect 7 0 1 0;
#X connect 8 0 7 1;
#X connect 9 0 4 0;
#X connect 10 0 3 0;
#X connect 10 1 2 0;
#X restore 906 584 pd scale;
#X obj 906 653 mtof;
#X floatatom 906 717 5 0 0 0 - - - 12;
#X obj 1155 832 function 200 100 empty empty 0 1 228 228 228 55 55 55 0 0 0 0 0 76.9231 0.747368 764.103 0.4 158.974 0;
#X obj 1043 969 envgen~;
#X obj 1043 653 bng 25 250 50 0 empty empty empty 17 7 0 10 #e4e4e4 #4d4d4d #373737;
#X obj 1043 1012 numbox~ 4 15 100 #E4E4E4 #4D4D4D 10 0 0 0;
#X obj 906 1058 *~;
#X obj 1155 969 prepend set;
#X msg 1155 1012 0 76.9231 0.747368 764.103 0.4 158.974 0;
#X obj 1130 573 makenote 100 200;
#X obj 1130 617 keyboard 16 80 2 4 0 0 empty empty;
#X msg 1155 790 duration 1000 \, bang;
#X obj 1063 832 tgl 25 0 empty empty empty 17 7 0 10 #e4e4e4 #4d4d4d #373737 0 1;
#X msg 1063 883 legato \$1;
#X obj 906 768 f2s~ 5;
#X obj 1155 754 loadbang;
#X obj 906 802 osc~;
#X obj 1063 788 loadbang;
#X obj 906 397 counter 0 7;
#X obj 906 245 receive seq_start;
#X obj 906 468 tabread melody2;
#X obj 906 1104 send~ melody2;
#X obj 236 1137 receive~ melody2;
#X obj 386 132 send set_tempo;
#X obj 228 230 receive set_tempo;
#X obj 1026 245 receive set_tempo;
#N canvas 0 0 450 250 (subpatch) 0;
#X array melody3 16 float 3;
#A 0 83.2143 78.5714 88.2143 69.6429 88.2143 75.3571 83.9286 77.1429 89.2857 68.9286 86.0714 75.7143 85 78.5714 74.2857 86.4286;
#X coords 0 90 16 40 200 140 1;
#X restore 1916 397 graph;
#X floatatom 1706 540 5 0 0 0 - - - 12;
#X obj 1706 504 int;
#X floatatom 1706 433 5 0 0 0 - - - 12;
#X obj 1706 293 metro 1 120 permin, f 31;
#X obj 1706 338 bng 25 250 50 0 empty empty empty 17 7 0 10 #e4e4e4 #4d4d4d #373737;
#N canvas 0 22 450 300 scale 0;
#X obj 230 143 inlet;
#X obj 230 467 outlet;
#X obj 353 248 / 12;
#X obj 230 248 % 12;
#X floatatom 230 332 5 0 0 0 - - - 12;
#X floatatom 353 332 5 0 0 0 - - - 12;
#X obj 353 290 int;
#X obj 230 400 +;
#X obj 353 366 * 12;
#N canvas 0 22 450 300 scale_yonanuki 0;
#X obj 223 108 inlet;
#X obj 223 234 outlet;
#X obj 223 142 select 0 1 2 3 4 5 6 7 8 9 10 11, f 54;
#X msg 225 184 0;
#X msg 292 184 2;
#X msg 361 184 4;
#X msg 431 184 7;
#X msg 500 184 9;
#X connect 0 0 2 0;
#X connect 2 0 3 0;
#X connect 2 1 3 0;
#X connect 2 2 4 0;
#X connect 2 3 4 0;
#X connect 2 4 5 0;
#X connect 2 5 5 0;
#X connect 2 6 6 0;
#X connect 2 7 6 0;
#X connect 2 8 6 0;
#X connect 2 9 7 0;
#X connect 2 10 7 0;
#X connect 2 11 7 0;
#X connect 3 0 1 0 32.................P..........D.........7A....;
#X connect 4 0 1 0 32.................P....T7+++OD....E+++++A....;
#X connect 5 0 1 0 32.................P....f3+++OD....H9++++A....;
#X connect 6 0 1 0 32.................P....3x+++OD....t7++++A....;
#X connect 7 0 1 0 32.................P....Du+++OD....w6++++A....;
#X restore 230 290 pd scale_yonanuki;
#X obj 230 189 t f f;
#X connect 0 0 10 0;
#X connect 2 0 6 0;
#X connect 3 0 9 0;
#X connect 4 0 7 0;
#X connect 5 0 8 0;
#X connect 6 0 5 0;
#X connect 7 0 1 0;
#X connect 8 0 7 1;
#X connect 9 0 4 0;
#X connect 10 0 3 0;
#X connect 10 1 2 0;
#X restore 1706 584 pd scale;
#X obj 1706 653 mtof;
#X floatatom 1706 717 5 0 0 0 - - - 12;
#X obj 1955 832 function 200 100 empty empty 0 1 228 228 228 55 55 55 0 0 0 0 0 20.5128 0.842105 30.7692 0.0947368 948.718 0;
#X obj 1843 969 envgen~;
#X obj 1843 653 bng 25 250 50 0 empty empty empty 17 7 0 10 #e4e4e4 #4d4d4d #373737;
#X obj 1843 1012 numbox~ 4 15 100 #E4E4E4 #4D4D4D 10 0 0 0;
#X obj 1706 1058 *~;
#X obj 1955 969 prepend set;
#X msg 1955 1012 0 20.5128 0.842105 30.7692 0.0947368 948.718 0;
#X obj 1930 573 makenote 100 200;
#X obj 1930 617 keyboard 16 80 2 4 0 0 empty empty;
#X msg 1955 790 duration 1000 \, bang;
#X obj 1863 832 tgl 25 0 empty empty empty 17 7 0 10 #e4e4e4 #4d4d4d #373737 0 1;
#X msg 1863 883 legato \$1;
#X obj 1706 768 f2s~ 5;
#X obj 1955 754 loadbang;
#X obj 1706 802 osc~;
#X obj 1863 788 loadbang;
#X obj 1706 245 receive seq_start;
#X obj 1826 245 receive set_tempo;
#X obj 1706 397 counter 0 15;
#X obj 1706 468 tabread melody3;
#X obj 1706 1104 send~ melody3;
#X obj 1309 790 initmess 0 76.9231 0.747368 764.103 0.4 158.974 0;
#X obj 377 1137 receive~ melody3;
#X obj 2109 790 initmess 0 20.5128 0.842105 30.7692 0.0947368 948.718 0;
#X obj 224 67 sel 0;
#X obj 224 132 send counter_reset;
#X msg 224 99 set 0;
#X obj 1223 189 loadbang;
#X obj 1979 165 loadbang;
#X obj 154 323 receive counter_reset;
#X obj 963 338 receive counter_reset;
#X obj 1766 338 receive counter_reset;
#X obj 99 382 counter 0 3;
#X text 1706 188 16分刻みのシーケンサ, f 18;
#X text 906 188 8分刻みのシーケンサ, f 18;
#X text 99 188 4分刻みのシーケンサ, f 18;
#X msg 372 230 0.25;
#X msg 421 230 0.5;
#X msg 473 230 1;
#X msg 1979 204 0.25;
#X msg 2028 204 0.5;
#X msg 2080 204 1;
#X msg 1174 245 0.25;
#X msg 1223 245 0.5;
#X msg 1275 245 1;
#X connect 1 0 8 0;
#X connect 2 0 1 0;
#X connect 3 0 30 0;
#X connect 4 0 6 0;
#X connect 5 0 31 0;
#X connect 5 0 102 0;
#X connect 6 0 110 0;
#X connect 7 0 66 0;
#X connect 8 0 9 0;
#X connect 8 0 13 0 32.................Q....jH...PD....IB...HC....;
#X connect 8 0 19 0 48......................rD.........KA...b8+++O3....W++++CN...v3++++;
#X connect 9 0 10 0;
#X connect 10 0 25 0;
#X connect 11 0 17 0;
#X connect 11 0 12 0;
#X connect 12 0 14 0;
#X connect 12 0 15 1 48......................b8+++O.....W++++S8++++f++++T++++O3+++O0++++;
#X connect 13 0 12 0 32.................BC........fv.........DO....;
#X connect 15 0 33 0;
#X connect 17 0 18 0;
#X connect 19 0 20 0;
#X connect 19 1 20 1 32.................M....fT...PC....HE...jA....;
#X connect 21 0 11 0;
#X connect 22 0 23 0;
#X connect 23 0 12 0;
#X connect 24 0 7 0;
#X connect 25 0 28 0;
#X connect 26 0 11 0;
#X connect 27 0 21 0;
#X connect 28 0 15 0;
#X connect 29 0 22 0;
#X connect 30 0 2 0;
#X connect 32 0 4 0;
#X connect 34 0 35 0;
#X connect 35 0 16 0;
#X connect 35 0 16 1;
#X connect 37 0 42 0;
#X connect 38 0 37 0;
#X connect 39 0 63 0;
#X connect 40 0 41 0;
#X connect 41 0 61 0;
#X connect 42 0 43 0;
#X connect 42 0 47 0 32.................Q....jH...PD....IB...HC....;
#X connect 42 0 52 0 48......................rD.........KA...b8+++O3....W++++CN...v3++++;
#X connect 43 0 44 0;
#X connect 44 0 57 0;
#X connect 45 0 50 0;
#X connect 45 0 46 0;
#X connect 46 0 48 0;
#X connect 46 0 49 1 48......................b8+++O.....W++++S8++++f++++T++++O3+++O0++++;
#X connect 47 0 46 0 32.................BC........fv.........DO....;
#X connect 49 0 64 0;
#X connect 50 0 51 0;
#X connect 52 0 53 0;
#X connect 52 1 53 1 32.................M....fT...PC....HE...jA....;
#X connect 54 0 45 0;
#X connect 55 0 56 0;
#X connect 56 0 46 0;
#X connect 57 0 59 0;
#X connect 58 0 54 0;
#X connect 59 0 49 0;
#X connect 60 0 55 0;
#X connect 61 0 39 0;
#X connect 62 0 40 0;
#X connect 63 0 38 0;
#X connect 65 0 35 0;
#X connect 67 0 4 0;
#X connect 68 0 40 0;
#X connect 70 0 75 0;
#X connect 71 0 70 0;
#X connect 72 0 97 0;
#X connect 73 0 74 0;
#X connect 74 0 96 0;
#X connect 75 0 76 0;
#X connect 75 0 80 0 32.................Q....jH...PD....IB...HC....;
#X connect 75 0 85 0 48......................rD.........KA...b8+++O3....W++++CN...v3++++;
#X connect 76 0 77 0;
#X connect 77 0 90 0;
#X connect 78 0 83 0;
#X connect 78 0 79 0;
#X connect 79 0 81 0;
#X connect 79 0 82 1 48......................b8+++O.....W++++S8++++f++++T++++O3+++O0++++;
#X connect 80 0 79 0 32.................BC........fv.........DO....;
#X connect 82 0 98 0;
#X connect 83 0 84 0;
#X connect 85 0 86 0;
#X connect 85 1 86 1 32.................M....fT...PC....HE...jA....;
#X connect 87 0 78 0;
#X connect 88 0 89 0;
#X connect 89 0 79 0;
#X connect 90 0 92 0;
#X connect 91 0 87 0;
#X connect 92 0 82 0;
#X connect 93 0 88 0;
#X connect 94 0 73 0;
#X connect 95 0 73 0;
#X connect 96 0 72 0;
#X connect 97 0 71 0;
#X connect 99 0 45 0;
#X connect 100 0 35 0;
#X connect 101 0 78 0;
#X connect 102 0 104 0;
#X connect 104 0 103 0;
#X connect 105 0 121 0;
#X connect 106 0 117 0;
#X connect 107 0 110 0;
#X connect 108 0 61 0;
#X connect 109 0 96 0;
#X connect 110 0 3 0;
#X connect 114 0 4 1;
#X connect 115 0 4 1;
#X connect 116 0 4 1;
#X connect 117 0 73 1;
#X connect 118 0 73 1;
#X connect 119 0 73 1;
#X connect 120 0 40 1;
#X connect 121 0 40 1;
#X connect 122 0 40 1;
#X restore 259 299 pd fig4;
