#N canvas 827 239 527 327 12;
#X obj 399 199 osc~ 440;
#X obj 524 237 vline~;
#X obj 399 367 *~;
#X obj 399 521 out~;
#X obj 399 98 metro 200;
#X obj 399 168 mtof;
#X obj 399 45 tgl 25 0 empty empty empty 17 7 0 10 #e4e4e4 #4d4d4d #373737 0 1;
#X obj 399 136 rand.i 40 80;
#X msg 524 199 1 3 \, 0 50 2;
#X obj 524 136 bng 25 250 50 0 empty empty empty 17 7 0 10 #e4e4e4 #4d4d4d #373737;
#X obj 549 299 knob 50 0 1 0 0 empty empty #E4E4E4 #B7B7B7 #4D4D4D 1 0 0 0 1 270 0 0 0;
#X obj 474 392 hv.reverb~;
#X obj 474 367 *~;
#X connect 0 0 12 0 32.................x....rD...fL....KA...TI....;
#X connect 0 0 2 0 32.................KA........vR.........TI....;
#X connect 1 0 2 1 32.................k....73+++eI....O9++++F....;
#X connect 2 0 3 1 32.................MA...XD...PS....FA...nI....;
#X connect 2 0 3 0 32.................MA........PS.........nI....;
#X connect 4 0 7 0;
#X connect 4 0 9 0;
#X connect 5 0 0 0;
#X connect 6 0 4 0;
#X connect 7 0 5 0;
#X connect 8 0 1 0;
#X connect 9 0 8 0;
#X connect 10 0 12 1;
#X connect 11 0 3 0 32.................k....X6+++eI....19+++6F....;
#X connect 11 1 3 1 32.................2....r7++++M....K++++6F....;
#X connect 12 0 11 0;
