#N canvas 827 239 527 327 12;
#X obj 399 224 osc~ 440;
#X obj 524 262 vline~;
#X obj 399 392 *~;
#X obj 399 667 out~;
#X obj 399 98 metro 200;
#X obj 399 193 mtof;
#X obj 399 45 tgl 25 0 empty empty empty 17 7 0 10 #e4e4e4 #4d4d4d #373737 0 1;
#X obj 524 161 bng 25 250 50 0 empty empty empty 17 7 0 10 #e4e4e4 #4d4d4d #373737;
#X obj 524 335 knob 50 0 0.8 0 0 empty empty #E4E4E4 #B7B7B7 #4D4D4D 1 0 0 0 1 270 0 0 0;
#X obj 474 392 *~;
#X obj 549 436 delwrite~ delay 3000;
#X obj 549 599 delread4~ delay;
#X obj 733 479 *~ 0.5;
#X obj 756 405 knob 50 0 0.9 0 0 empty empty #E4E4E4 #B7B7B7 #4D4D4D 1 0 0 0 1 270 0 0 0;
#X obj 549 479 knob 50 10 1000 0 0 empty empty #E4E4E4 #B7B7B7 #4D4D4D 1 0 0 0 1 270 0 0 10;
#X floatatom 549 536 5 0 0 0 - - - 12;
#X obj 549 561 f2s~ 100;
#X msg 524 224 1 3 \, 0 30 2;
#X obj 572 98 rand.i 50 400;
#X obj 399 153 rand.i 50 80;
#X connect 0 0 2 0 32.................KA........vR.........TI....;
#X connect 1 0 2 1 32.................k....73+++eI....O9++++F....;
#X connect 2 0 3 1 32.................MA...XD...PS....FA...nI....;
#X connect 2 0 3 0 32.................MA........PS.........nI....;
#X connect 2 0 9 0 48.................R....XB...fD....l....r8++++R....a++++uD...f6++++;
#X connect 4 0 19 0;
#X connect 4 0 18 0 48.................L....bE....C....WA...D8+++eq....Q++++2J...f6++++;
#X connect 4 0 7 0 32.................O....zG...vC....8A...vB....;
#X connect 5 0 0 0;
#X connect 6 0 4 0;
#X connect 7 0 17 0;
#X connect 8 0 9 1 32.................D....n8+++OA....Z++++e.....;
#X connect 9 0 10 0 32.................M....rD...PC....KA...jA....;
#X connect 11 0 3 1 32.................Y....D6+++eF....w9+++GC....;
#X connect 11 0 3 0 32.................Y....r1+++eF....q8+++GC....;
#X connect 11 0 12 0 48.................X....zH....F....MB....1+++Ot....f8+++iK...fc++++;
#X connect 12 0 10 0 48.................N....P8+++uC....T+++++5+++eR++++u9+++mz++++v++++;
#X connect 13 0 12 1;
#X connect 14 0 15 0;
#X connect 15 0 16 0;
#X connect 16 0 11 0;
#X connect 17 0 1 0;
#X connect 18 0 4 1 48......................H7+++O.....B++++68++++f++++d++++O3+++u6++++;
#X connect 19 0 5 0;
