#N canvas 827 239 527 327 12;
#X obj 269 115 osc~ 440;
#X obj 269 174 pan2~, f 18;
#X obj 373 115 hsl 128 17 -1 1 0 0 empty empty empty -2 -8 0 10 #e4e4e4 #4d4d4d #373737 0 1;
#X floatatom 370 139 5 0 0 0 - - - 12;
#X obj 431 242 meter2~;
#X obj 269 276 out~;
#X connect 0 0 1 0;
#X connect 1 0 4 0;
#X connect 1 0 5 0;
#X connect 1 1 4 1;
#X connect 1 1 5 1;
#X connect 2 0 3 0;
#X connect 3 0 1 1;
