#N canvas 827 239 527 327 12;
#X obj 563 1325 pan2~, f 18;
#X obj 676 1248 hsl 128 17 -1 1 0 0 empty empty empty -2 -8 0 10 #e4e4e4 #4d4d4d #373737 0 1;
#X floatatom 664 1272 5 0 0 0 - - - 12;
#N canvas 0 0 450 250 (subpatch) 0;
#X array melody_seq1 16 float 3;
#A 0 56.5714 63.4286 70 76 70 62.2857 63.1429 70.8571 75.1429 70.5714 65.4286 63.4286 69.4286 74.2857 71.4286 76;
#X coords 0 90 16 50 200 140 1;
#X restore 742 457 graph;
#X floatatom 563 600 5 0 0 0 - - - 12;
#X obj 563 564 int;
#X floatatom 563 493 5 0 0 0 - - - 12;
#X obj 563 353 metro 1 120 permin, f 31;
#X obj 563 299 tgl 25 0 empty empty empty 17 7 0 10 #e4e4e4 #4d4d4d #373737 0 1;
#X obj 563 398 bng 25 250 50 0 empty empty empty 17 7 0 10 #e4e4e4 #4d4d4d #373737;
#X msg 621 305 tempo \$1 permin;
#N canvas 0 22 450 300 scale 0;
#X obj 230 143 inlet;
#X obj 230 467 outlet;
#X obj 353 248 / 12;
#X obj 230 248 % 12;
#X floatatom 230 332 5 0 0 0 - - - 12;
#X floatatom 353 332 5 0 0 0 - - - 12;
#X obj 353 290 int;
#X obj 230 400 +;
#X obj 353 366 * 12;
#N canvas 0 22 450 300 scale_yonanuki 0;
#X obj 223 108 inlet;
#X obj 223 234 outlet;
#X obj 223 142 select 0 1 2 3 4 5 6 7 8 9 10 11, f 54;
#X msg 225 184 0;
#X msg 292 184 2;
#X msg 361 184 4;
#X msg 431 184 7;
#X msg 500 184 9;
#X connect 0 0 2 0;
#X connect 2 0 3 0;
#X connect 2 1 3 0;
#X connect 2 2 4 0;
#X connect 2 3 4 0;
#X connect 2 4 5 0;
#X connect 2 5 5 0;
#X connect 2 6 6 0;
#X connect 2 7 6 0;
#X connect 2 8 6 0;
#X connect 2 9 7 0;
#X connect 2 10 7 0;
#X connect 2 11 7 0;
#X connect 3 0 1 0 32.................P..........D.........7A....;
#X connect 4 0 1 0 32.................P....T7+++OD....E+++++A....;
#X connect 5 0 1 0 32.................P....f3+++OD....H9++++A....;
#X connect 6 0 1 0 32.................P....3x+++OD....t7++++A....;
#X connect 7 0 1 0 32.................P....Du+++OD....w6++++A....;
#X restore 230 290 pd scale_yonanuki;
#X obj 230 189 t f f;
#X connect 0 0 10 0;
#X connect 2 0 6 0;
#X connect 3 0 9 0;
#X connect 4 0 7 0;
#X connect 5 0 8 0;
#X connect 6 0 5 0;
#X connect 7 0 1 0;
#X connect 8 0 7 1;
#X connect 9 0 4 0;
#X connect 10 0 3 0;
#X connect 10 1 2 0;
#X restore 563 700 pd scale;
#X obj 563 838 mtof;
#X floatatom 563 902 5 0 0 0 - - - 12;
#X obj 874 974 function 200 100 empty empty 0 1 228 228 228 55 55 55 0 0 0 0 0 5.12821 0.778947 153.846 0.0842105 841.026 0;
#X obj 712 1111 envgen~;
#X obj 712 795 bng 25 250 50 0 empty empty empty 17 7 0 10 #e4e4e4 #4d4d4d #373737;
#X obj 712 1154 numbox~ 4 15 100 #E4E4E4 #4D4D4D 10 0 0 0;
#X obj 563 1243 *~;
#X obj 874 1111 prepend set;
#X msg 874 1154 0 5.12821 0.778947 153.846 0.0842105 841.026 0;
#X obj 799 715 makenote 100 200;
#X obj 799 759 keyboard 16 80 2 4 0 0 empty empty;
#X msg 874 932 duration 1000 \, bang;
#X obj 651 980 tgl 25 0 empty empty empty 17 7 0 10 #e4e4e4 #4d4d4d #373737 0 1;
#X msg 651 1027 legato \$1;
#X obj 563 457 counter 0 15;
#X obj 1028 932 initmess 0 5.12821 0.778947 425.641 0.0736842 569.231 0;
#X obj 874 896 loadbang;
#X obj 651 932 loadbang;
#X obj 563 1896 out~;
#X floatatom 621 267 5 0 0 0 - - - 12;
#X obj 621 231 initmess 120;
#X obj 563 528 tabread melody_seq1;
#X msg 845 279 0.5;
#X msg 971 279 1;
#X msg 795 279 0.25;
#X msg 909 279 0.75;
#X obj 563 953 f2s~ 5;
#X obj 742 305 s bpm;
#X obj 563 1088 saw~;
#X obj 667 1191 random 100;
#X obj 667 1217 scale 0 100 -1 1;
#X obj 664 1298 f2s~ 5;
#X obj 1074 1478 s delay_time;
#X floatatom 1074 1387 5 0 0 0 - - - 12;
#X floatatom 1238 1345 5 0 0 0 - - - 12;
#X floatatom 1078 1448 20 0 0 0 - - - 8;
#X obj 1238 1375 t b f;
#X obj 1074 1421 expr (60000 / $f1) * $f2, f 28;
#X obj 1238 1242 initmess 1;
#X obj 1238 1278 knob 50 0 2 0 0.125 empty empty #E4E4E4 #B7B7B7 #4D4D4D 1 0 17 1 1 270 0 0 0.125;
#X obj 1074 1321 r bpm;
#X obj 903 1781 *~ 0.5;
#X obj 730 1654 *~ 0.5;
#X obj 880 1647 r delay_time;
#X obj 1299 1499 knob 50 0 0.9 0 0 empty empty #E4E4E4 #B7B7B7 #4D4D4D 1 0 0 0 1 270 0 0 0;
#X obj 1299 1654 knob 50 0 0.9 0 0 empty empty #E4E4E4 #B7B7B7 #4D4D4D 1 0 0 0 1 270 0 0 0;
#X obj 880 1681 f2s~ 1000;
#X obj 1299 1463 initmess 0.5;
#X obj 1299 1584 initmess 0.5;
#X obj 1172 1774 *~ 0.5;
#X obj 999 1647 *~ 0.5;
#X obj 730 1710 delwrite~ delayL 3000;
#X obj 730 1824 delread4~ delayL;
#X obj 999 1703 delwrite~ delayR 3000;
#X obj 999 1817 delread4~ delayR;
#X connect 0 0 30 0 32.................1C........f8.........rd....;
#X connect 0 0 54 0 32.................MB...rP...Pi....KD...XS....;
#X connect 0 1 30 1 32.................1C...H9+++u8....h++++ud....;
#X connect 0 1 62 0 32.................JB...La...fh....yF...7R....;
#X connect 1 0 2 0;
#X connect 2 0 43 0;
#X connect 4 0 11 0;
#X connect 5 0 4 0;
#X connect 6 0 33 0;
#X connect 7 0 9 0;
#X connect 8 0 7 0;
#X connect 9 0 26 0;
#X connect 10 0 7 0;
#X connect 11 0 12 0;
#X connect 11 0 16 0 32.................Q....jH...PD....IB...HC....;
#X connect 11 0 21 0 48......................7D.........OA...z++++O6....8++++yN...P+++++;
#X connect 12 0 13 0;
#X connect 13 0 38 0;
#X connect 14 0 15 0 32.................S....n5++++D....p9+++WB....;
#X connect 14 0 19 0 32.................S.........vD.........TB....;
#X connect 15 0 17 0;
#X connect 15 0 18 1 48.................M....b8+++eC....W++++6....Ph9+++N....jn+++eK....;
#X connect 16 0 15 0 32.................RB........fj.........LR....;
#X connect 16 0 41 0 32.................bD...D8+++OGA...Q++++2W....;
#X connect 18 0 0 0;
#X connect 19 0 20 0;
#X connect 21 0 22 0;
#X connect 21 1 22 1 32.................M....fT...PC....HE...jA....;
#X connect 23 0 14 0;
#X connect 24 0 25 0;
#X connect 25 0 15 0 32.................g....zC...PH....8....DD....;
#X connect 26 0 6 0;
#X connect 27 0 14 0;
#X connect 28 0 23 0;
#X connect 29 0 24 0;
#X connect 31 0 10 0 32.................J.........fB.........PA....;
#X connect 31 0 39 0 32.................J....jG...fB....4A...PA....;
#X connect 32 0 31 0;
#X connect 33 0 5 0;
#X connect 34 0 7 1 32.................b....n5+++OG....p9+++eC....;
#X connect 35 0 7 1 32.................b....7x+++OG....u7+++eC....;
#X connect 36 0 7 1 32.................b....v8+++OG....b++++eC....;
#X connect 37 0 7 1 32.................b....n1+++OG....p8+++eC....;
#X connect 38 0 40 0;
#X connect 40 0 18 0;
#X connect 41 0 42 0;
#X connect 42 0 1 0;
#X connect 43 0 0 1;
#X connect 45 0 49 0;
#X connect 46 0 48 0;
#X connect 47 0 44 0;
#X connect 48 0 45 0 48.................M....P6+++eC....z9++++9+++eW++++u++++20+++u9++++;
#X connect 48 1 49 1;
#X connect 49 0 47 0;
#X connect 50 0 51 0;
#X connect 51 0 46 0;
#X connect 52 0 45 0;
#X connect 53 0 63 0 48.................b....j8+++OG....Y++++O4+++OU++++S9+++S0++++o++++;
#X connect 54 0 63 0;
#X connect 55 0 58 0;
#X connect 56 0 54 1 32.................P....7c+++OD....e2+++mF....;
#X connect 56 0 62 1 48.................b....j8+++OG....Y++++qB....69+++p....vt+++uX....;
#X connect 57 0 53 1 32.................g....vn+++eH....L5+++2D....;
#X connect 57 0 61 1 32.................W....j4++++E....Y9+++aD....;
#X connect 58 0 64 0 32.................u....z0++++K....c8+++yG....;
#X connect 58 0 66 0 32.................m....bG...vI....2A...TG....;
#X connect 59 0 56 0;
#X connect 60 0 57 0;
#X connect 61 0 65 0 48.................b....T9+++OG....k++++O4+++OU++++S9+++S0++++o++++;
#X connect 62 0 65 0;
#X connect 64 0 53 0 48.................f....PG....H....zA...v6++++t....79+++uK...vv++++;
#X connect 64 0 30 0 32.................a....Xu++++F....16+++WC....;
#X connect 66 0 61 0 48.................f....PG....H....zA...v6++++t....79+++uK...vv++++;
#X connect 66 0 30 1 32.................d....7h+++uG....u3+++yC....;
